<?xml version="1.0" encoding="utf-8"?>
<!-- Generator: Adobe Illustrator 28.1.0, SVG Export Plug-In . SVG Version: 6.00 Build 0)  -->
<svg version="1.1" xmlns="http://www.w3.org/2000/svg" xmlns:xlink="http://www.w3.org/1999/xlink" x="0px" y="0px"
	 viewBox="0 0 500 500" style="enable-background:new 0 0 500 500;" xml:space="preserve">
<style type="text/css">
	.st0{fill:#FFFFFF;stroke:#231F20;stroke-width:9.9458;stroke-miterlimit:10;}
	.st1{fill:#231F20;}
</style>
<g id="background">
</g>
<g id="Logos">
	<g>
		<path class="st0" d="M482,122.5V320c0,21.4-17.4,38.8-38.8,38.8H328.6l-51.5,51.5c-15.2,15.2-39.7,15.2-54.9,0l-51.5-51.5H56.2
			c-21.4,0-38.8-17.4-38.8-38.8V122.5c0-21.4,17.4-38.8,38.8-38.8h387C464.6,83.7,482,101.1,482,122.5z"/>
		<g>
			<g>
				<path class="st1" d="M83.9,318.6c-7.2-2-12.9-5-17.3-9.1c-4.4-4.1-6.5-9.1-6.5-14.9c0-10,6-16.9,17.9-20.7
					c-4.8-2-8.2-4.4-9.9-7.3c-1.8-2.9-2.7-6.3-2.7-10.2c0-4.4,1.7-8.4,5.2-12c3.5-3.6,7.7-6.1,12.5-7.6c-5.9-2.7-10.4-6.6-13.2-11.6
					c-2.9-5-4.3-10.5-4.3-16.3c0-6.2,1.6-11.7,4.7-16.5c3.1-4.8,7.8-8.6,14.1-11.3c6.2-2.7,13.8-4.1,22.7-4.1
					c6.4,0,11.8,0.7,16.1,2.1c4.4,1.4,8.3,3.5,11.7,6.3c2.1-2.5,4.7-4.6,7.6-6.3c2.9-1.6,6-2.5,9.1-2.5c4.3,0,8,1.3,10.9,4
					s4.4,6.4,4.4,11.3c0,3.9-0.7,7-2.2,9c-1.5,2.1-3.6,3.1-6.4,3.1l-11.3-16.7c-1.6,0.1-3,0.3-4,0.8c-1.1,0.5-2.2,1.2-3.3,2.1
					c3.8,5.3,5.7,11.4,5.7,18.2c0,6.3-1.4,11.9-4.3,16.8c-2.9,4.9-7.3,8.8-13.3,11.6c-6,2.8-13.5,4.2-22.5,4.2
					c-6.8,0-12.2-0.6-16.1-1.8c-1.7,1-3.1,2.4-4.1,4.2c-1,1.7-1.5,3.6-1.5,5.4c0,2.7,1.3,4.6,4,5.7c2.7,1.1,6.4,1.6,11.3,1.6h25.3
					c10.6,0,18.9,2.5,25,7.6c6.1,5.1,9.1,12.6,9,22.6c0,5.8-1.9,11.3-5.8,16.7c-3.9,5.4-9.6,9.8-17.3,13.2c-7.7,3.4-17,5.1-27.8,5.1
					C98.9,321.6,91,320.6,83.9,318.6 M123.3,309.9c4.1-1.5,7.5-3.6,10-6.5c2.5-2.9,3.8-6.3,3.8-10.3c0-4.3-1.5-7.8-4.4-10.5
					c-2.9-2.7-7.3-4-13.2-4H99.9c-1.9,0-4.5-0.2-7.6-0.5c-3.1-0.4-5.3-0.8-6.6-1.4c-1,2-1.8,4-2.3,5.9c-0.5,1.9-0.8,4.5-0.8,7.8
					c0,5,1.4,9.1,4.2,12.4c2.8,3.3,6.3,5.6,10.4,7.1c4.2,1.5,8.5,2.2,12.8,2.2C114.7,312.1,119.2,311.4,123.3,309.9 M117.1,225.7
					c2.3-4.4,3.4-10.2,3.4-17.3c0-15.2-5-22.8-14.9-22.8c-5.4,0-9.1,2.1-11.1,6.3c-2.1,4.2-3.1,9.9-3.1,17.1c0,7.2,1,12.9,3.2,17.1
					c2.1,4.2,5.8,6.3,11.2,6.3C111,232.4,114.9,230.2,117.1,225.7"/>
				<path class="st1" d="M173.5,273.9c-0.6-0.9-0.9-1.8-0.9-2.7c0-1.1,0.2-1.9,0.7-2.5c0.5-0.6,1.3-0.9,2.5-1.1
					c3.2-0.3,5.8-0.8,8-1.7c2.2-0.8,3.3-2.1,3.3-3.9v-62.4c0-3-0.6-5.4-1.7-7c-1.1-1.6-2.4-2.7-3.9-3.2c-1.5-0.5-3.4-1-5.8-1.4
					c-0.3-0.1-0.8-0.1-1.5-0.2c-0.6-0.1-1.2-0.2-1.6-0.3c-0.8-0.3-1.4-0.8-1.7-1.4c-0.4-0.6-0.6-1.4-0.6-2.5c0-0.9,0.2-1.8,0.7-2.8
					c0.4-0.9,1-1.4,1.6-1.5c10.7-0.5,22.1-0.8,34.3-1h2.5c0.6,0,1.3,0.3,1.8,0.9c0.6,0.6,0.9,1.6,1.1,3v17.6c2-4,4.6-7.8,7.7-11.2
					c3.1-3.5,6.7-6.3,10.8-8.6c4.1-2.2,8.4-3.3,13-3.3c5.6,0,9.6,1.6,12,4.7c2.5,3.1,3.7,7,3.7,11.6c0,2.8-0.7,5.5-2.2,8
					c-1.5,2.5-3.3,4.4-5.4,5.8c-2.1,1.4-4.1,2.1-6,2.1l-12.5-16.2c-3.8,0-7.5,1.9-11.2,5.8c-3.7,3.9-6.6,8.5-8.8,13.8V259
					c0,2.4,0.9,4.2,2.6,5.4c1.7,1.2,3.6,2,5.6,2.3c2,0.3,5,0.7,9.1,1.1c1.4,0.1,2.4,0.4,2.8,0.8c0.5,0.4,0.7,1.3,0.7,2.8
					c0,0.9-0.3,1.8-0.9,2.7c-0.6,0.9-1.4,1.3-2.4,1.3h-55C174.8,275.2,174,274.8,173.5,273.9"/>
				<path class="st1" d="M269.2,273.9c-0.6-0.9-0.9-1.8-0.9-2.7c0-1.1,0.2-2,0.7-2.6c0.5-0.6,1.3-1,2.5-1c7.4-0.8,11.1-2.6,11.1-5.5
					l0.1-62.3c0-3-0.5-5.3-1.6-6.9c-1.1-1.6-2.3-2.6-3.8-3.1c-1.5-0.5-3.4-0.9-5.7-1.3c-0.3-0.1-0.8-0.1-1.6-0.2
					c-0.7-0.1-1.3-0.2-1.7-0.3c-0.8-0.3-1.4-0.8-1.7-1.4c-0.4-0.6-0.6-1.4-0.6-2.5c0-0.9,0.2-1.8,0.6-2.8c0.4-0.9,1-1.4,1.7-1.5
					c13.1-0.8,25.7-1.3,38-1.3c0.7,0,1.4,0.3,1.9,0.9c0.6,0.6,0.9,1.6,1,3v76.5c0,2.4,0.6,4.2,1.8,5.4c1.2,1.2,2.6,2,4.1,2.4
					c1.5,0.4,3.5,0.7,5.9,0.9c1.4,0.1,2.4,0.4,2.8,0.8c0.5,0.4,0.7,1.3,0.7,2.8c0,0.8-0.3,1.7-0.9,2.6c-0.6,0.9-1.4,1.4-2.4,1.4
					h-49.6C270.5,275.2,269.7,274.8,269.2,273.9 M287.2,159.6c-2.4-1.4-4.3-3.3-5.8-5.8c-1.4-2.5-2.1-5.3-2.1-8.4
					c0-3.1,0.7-5.9,2.1-8.4c1.4-2.5,3.3-4.4,5.8-5.9c2.4-1.4,5.2-2.1,8.2-2.1c3,0,5.7,0.7,8.1,2.1c2.5,1.4,4.4,3.4,5.8,5.9
					c1.4,2.5,2.1,5.3,2.1,8.4c0,3.1-0.7,5.9-2.1,8.4c-1.4,2.5-3.4,4.4-5.8,5.8c-2.5,1.4-5.2,2.1-8.1,2.1
					C292.4,161.7,289.7,161,287.2,159.6"/>
				<path class="st1" d="M345.3,271.1c-6.4-4.6-11.1-10.7-14-18.3c-2.9-7.6-4.4-16-4.4-25.3c0-9,1.8-17.4,5.3-25.1
					c3.6-7.7,8.9-13.9,16.1-18.5c7.1-4.7,15.9-7,26.2-7c5.6,0,10.4,0.5,14.4,1.5c4.1,1,7.9,2.8,11.6,5.4l-0.9-15.7v-22
					c0-3.2-0.9-5.6-2.7-7.2c-1.8-1.7-3.9-2.8-6.4-3.3c-2.5-0.6-5.8-1.1-10-1.6c-0.8-0.3-1.4-0.8-1.7-1.4c-0.4-0.6-0.6-1.4-0.6-2.5
					c0-0.9,0.2-1.8,0.6-2.8c0.4-0.9,1-1.4,1.7-1.5c10.3-0.6,23.1-1,38.4-1h4.1c0.7,0,1.4,0.3,1.9,0.9c0.6,0.6,0.9,1.6,1,3v129.5
					c0,2.6,0.5,4.5,1.6,5.9c1.1,1.3,2.3,2.2,3.8,2.6c1.5,0.4,3.3,0.7,5.5,1c1.4,0.1,2.4,0.4,2.8,0.8c0.5,0.4,0.7,1.3,0.7,2.8
					c0,0.8-0.3,1.7-0.9,2.6c-0.6,0.9-1.4,1.4-2.4,1.4h-29.5c-2.4,0-4.1-0.4-5.2-1.1c-1.1-0.7-1.7-1.7-1.9-3c-0.2-1.3-0.3-3.3-0.2-6
					c-3.2,4-7.6,7.2-13.4,9.5c-5.8,2.3-11.4,3.4-17,3.4C359.9,278.1,351.7,275.7,345.3,271.1 M391.7,263c3.7-1.8,6.4-4.1,8.1-6.9
					v-58.9c-1.2-2.8-3.5-5.2-6.9-7.3c-3.5-2.1-7.1-3.1-10.8-3.1c-9.6,0-16.4,3.5-20.4,10.6c-4,7.1-6,17.1-6,30.1c0,12,2,21.3,5.9,28
					c3.9,6.7,10.5,10.1,19.6,10.1C384.5,265.6,388,264.8,391.7,263"/>
			</g>
			<g>
				<path class="st1" d="M178.9,312.5c-1.6,0-3.1-0.4-4.3-1.3c-1.3-0.8-2.2-2-2.9-3.4c-0.7-1.4-1-3-1-4.7c0-2,0.4-3.8,1.3-5.3
					c0.8-1.5,1.9-2.7,3.3-3.6c1.4-0.8,2.8-1.3,4.4-1.3c1.1,0,2.1,0.1,2.8,0.4s1.3,0.7,1.7,1.2c0.4,0.5,0.6,1,0.6,1.6
					c0,0.6-0.2,1.1-0.7,1.5c-0.5,0.4-1.1,0.6-2,0.7c-0.4-1-0.9-1.8-1.4-2.5c-0.5-0.7-1.2-1-2-1c-0.8,0-1.5,0.3-2.2,0.8
					c-0.6,0.5-1.1,1.2-1.4,2.2c-0.3,0.9-0.5,2-0.5,3.3c0,1.3,0.2,2.6,0.7,3.9c0.5,1.4,1.2,2.5,2.1,3.4c0.9,0.9,2.1,1.4,3.4,1.4
					c0.9,0,1.7-0.1,2.3-0.3c0.6-0.2,1.3-0.5,1.9-0.9l0.5,1.2c-0.6,0.7-1.5,1.3-2.7,1.8C181.5,312.2,180.2,312.5,178.9,312.5z"/>
				<path class="st1" d="M195.6,312.4c-1.8,0-3.4-0.4-4.6-1.2c-1.3-0.8-2.3-2-3-3.4c-0.7-1.4-1-3.1-1-4.9c0-2,0.4-3.8,1.3-5.3
					c0.9-1.5,2-2.7,3.4-3.5c1.4-0.8,2.9-1.2,4.5-1.2c1.7,0,3.2,0.4,4.4,1.2c1.3,0.8,2.2,1.9,2.9,3.4c0.7,1.5,1,3.1,1,5.1
					c0,1.9-0.4,3.6-1.2,5.1c-0.8,1.5-1.8,2.7-3.2,3.5C198.7,312,197.2,312.4,195.6,312.4z M195.2,295.1c-1,0-1.8,0.3-2.5,0.9
					c-0.7,0.6-1.2,1.3-1.5,2.3c-0.3,1-0.5,2-0.5,3.2c0,1.6,0.2,3,0.6,4.4c0.4,1.4,1,2.5,1.8,3.3c0.8,0.9,1.9,1.3,3.2,1.3
					c0.9,0,1.7-0.3,2.4-0.9c0.7-0.6,1.1-1.3,1.5-2.3c0.3-0.9,0.5-1.9,0.5-2.9c0-1.5-0.2-3-0.6-4.4c-0.4-1.4-1-2.6-1.8-3.5
					C197.5,295.6,196.5,295.1,195.2,295.1z"/>
				<path class="st1" d="M216.1,311.8h-9.7l0.2-1.6l3.1-0.8v-12.7l-3.4-1.1l0.2-1.6l6.4-0.9l0.4,0.4l-0.4,2.6h0.2
					c0.7-0.9,1.7-1.7,2.8-2.3c1.1-0.6,2.3-0.9,3.5-0.9c1.1,0,2,0.3,2.9,0.8c0.9,0.6,1.4,1.4,1.8,2.6h0.3c0.7-1,1.6-1.7,2.7-2.4
					c1.1-0.6,2.2-0.9,3.5-0.9c3.3,0,5,2,5,5.9v10.4l2.9,0.8l-0.3,1.7h-8.9l0.1-1.5l2.6-0.8v-9.9c0-1-0.3-1.9-0.9-2.6
					c-0.6-0.7-1.5-1-2.6-1c-0.8,0-1.6,0.2-2.2,0.6c-0.6,0.4-1.2,0.9-1.8,1.5v11.5l3.1,0.7l-0.2,1.7H218l0.2-1.6l2.7-0.8v-9.9
					c0-0.7-0.2-1.3-0.5-1.9c-0.3-0.6-0.7-1-1.3-1.3c-0.5-0.3-1.2-0.5-1.8-0.5c-0.8,0-1.5,0.2-2.3,0.5c-0.7,0.3-1.3,0.8-1.9,1.4v11.7
					l3,0.7L216.1,311.8z"/>
				<path class="st1" d="M249.3,311.8h-9.7l0.2-1.6l3.1-0.8v-12.7l-3.4-1.1l0.2-1.6l6.4-0.9l0.4,0.4l-0.4,2.6h0.2
					c0.7-0.9,1.7-1.7,2.8-2.3c1.1-0.6,2.3-0.9,3.5-0.9c1.1,0,2,0.3,2.9,0.8c0.9,0.6,1.4,1.4,1.8,2.6h0.3c0.7-1,1.6-1.7,2.7-2.4
					c1.1-0.6,2.2-0.9,3.5-0.9c3.3,0,5,2,5,5.9v10.4l2.9,0.8l-0.3,1.7h-8.9l0.1-1.5l2.6-0.8v-9.9c0-1-0.3-1.9-0.9-2.6
					c-0.6-0.7-1.5-1-2.6-1c-0.8,0-1.6,0.2-2.2,0.6c-0.6,0.4-1.2,0.9-1.8,1.5v11.5l3.1,0.7l-0.2,1.7h-9.3l0.2-1.6l2.7-0.8v-9.9
					c0-0.7-0.2-1.3-0.5-1.9c-0.3-0.6-0.7-1-1.3-1.3c-0.5-0.3-1.2-0.5-1.8-0.5c-0.8,0-1.5,0.2-2.3,0.5c-0.7,0.3-1.3,0.8-1.9,1.4v11.7
					l3,0.7L249.3,311.8z"/>
				<path class="st1" d="M275.2,296.6l-2.9-1.2l0.3-1.7l5.6-0.4l0.5,0.5v11.4c0,2.8,1.1,4.3,3.2,4.3c0.9,0,1.6-0.1,2.2-0.4
					c0.6-0.3,1.2-0.7,1.7-1.2v-11.1l-3.3-0.9l0.2-1.9l6.2-0.6l0.4,0.5v13.5c0,0.7,0.1,1.2,0.3,1.5c0.2,0.3,0.4,0.6,0.7,0.7
					c0.3,0.1,0.7,0.3,1.3,0.4l1,0.2l-0.2,1.7c-0.7,0.2-1.2,0.3-1.6,0.3c-0.4,0.1-0.9,0.1-1.6,0.1c-1,0-1.8-0.3-2.3-0.8
					c-0.5-0.6-0.8-1.3-0.8-2.2v-0.2h-0.3c-1.5,2.2-3.5,3.2-6,3.2c-1.5,0-2.6-0.5-3.4-1.4c-0.8-1-1.2-2.5-1.2-4.6V296.6z"/>
				<path class="st1" d="M303.5,311.8h-9.7l0.2-1.5l3.2-0.9v-12.7l-3.2-1.1l0.2-1.6l6.3-0.8l0.4,0.4l-0.4,2.7h0.2
					c0.8-1,1.7-1.7,2.8-2.4c1.1-0.6,2.3-0.9,3.5-0.9c1.6,0,2.9,0.5,3.8,1.6c0.9,1,1.3,2.5,1.3,4.4v10.5l3,0.7l-0.2,1.7h-9.4l0.2-1.5
					l2.9-0.9v-9.7c0-1.3-0.3-2.3-1-2.9c-0.7-0.6-1.5-1-2.7-1c-0.8,0-1.5,0.2-2.3,0.5c-0.7,0.3-1.3,0.8-1.9,1.3v11.8l3.1,0.7
					L303.5,311.8z"/>
				<path class="st1" d="M316,311.8l0.3-1.7l3.2-0.8v-12.9l-3.2-1.2l0.3-1.6l5.9-0.5l0.5,0.5v15.6l3.4,0.8l-0.2,1.7H316z M321,289.4
					c-0.4,0-0.9-0.1-1.2-0.4c-0.4-0.2-0.7-0.6-0.9-1c-0.2-0.4-0.3-0.8-0.3-1.3c0-0.7,0.2-1.2,0.7-1.7c0.5-0.5,1.1-0.7,1.8-0.7
					c0.7,0,1.3,0.2,1.8,0.7c0.5,0.5,0.8,1,0.8,1.7c0,0.5-0.1,0.9-0.3,1.3c-0.2,0.4-0.5,0.7-0.9,0.9
					C321.8,289.3,321.4,289.4,321,289.4z"/>
				<path class="st1" d="M335.8,312.5c-1.6,0-3.1-0.4-4.3-1.3c-1.3-0.8-2.2-2-2.9-3.4c-0.7-1.4-1-3-1-4.7c0-2,0.4-3.8,1.3-5.3
					c0.8-1.5,1.9-2.7,3.3-3.6c1.4-0.8,2.8-1.3,4.4-1.3c1.1,0,2.1,0.1,2.8,0.4c0.8,0.3,1.3,0.7,1.7,1.2c0.4,0.5,0.6,1,0.6,1.6
					c0,0.6-0.2,1.1-0.7,1.5c-0.5,0.4-1.1,0.6-2,0.7c-0.4-1-0.9-1.8-1.4-2.5c-0.5-0.7-1.2-1-2-1c-0.8,0-1.5,0.3-2.2,0.8
					c-0.6,0.5-1.1,1.2-1.4,2.2c-0.3,0.9-0.5,2-0.5,3.3c0,1.3,0.2,2.6,0.7,3.9c0.5,1.4,1.2,2.5,2.1,3.4c0.9,0.9,2.1,1.4,3.4,1.4
					c0.9,0,1.7-0.1,2.3-0.3c0.6-0.2,1.3-0.5,1.9-0.9l0.5,1.2c-0.6,0.7-1.5,1.3-2.7,1.8S337.1,312.5,335.8,312.5z"/>
				<path class="st1" d="M347.9,312.3c-0.7,0-1.4-0.2-2.1-0.5c-0.6-0.3-1.1-0.8-1.5-1.4c-0.4-0.6-0.6-1.3-0.6-2.1c0-1.1,0.3-2.1,1-3
					c0.7-1,1.8-1.8,3.2-2.4c1.4-0.7,3.3-1.1,5.4-1.2v-1.2c0-1.6-0.3-3-0.9-4c-0.6-1.1-1.5-1.6-2.9-1.6c-0.7,0-1.1,0.1-1.4,0.4
					c-0.3,0.3-0.5,0.7-0.6,1.2c-0.1,0.5-0.2,1.5-0.3,2.9c-0.8,0-1.5-0.1-2.1-0.4c-0.6-0.3-0.8-0.9-0.8-1.8c0-0.7,0.4-1.4,1.2-2.1
					c0.8-0.7,1.7-1.2,2.9-1.6c1.1-0.4,2.2-0.6,3.2-0.6c1.8,0,3.2,0.5,4,1.5c0.8,1,1.2,2.7,1.2,4.9v7.6c0,0.7,0.1,1.2,0.2,1.5
					c0.1,0.4,0.4,0.6,0.7,0.8c0.3,0.2,0.8,0.3,1.5,0.5l1,0.2l-0.3,1.8c-0.2,0-0.5,0.1-1,0.2c-0.7,0.2-1.3,0.2-1.9,0.2
					c-0.8,0-1.4-0.1-1.9-0.4c-0.5-0.3-0.8-0.6-1.1-1.1c-0.2-0.4-0.3-0.9-0.3-1.3v-0.3h-0.2c-0.4,0.8-1.1,1.5-2,2.2
					C350.6,312,349.4,312.3,347.9,312.3z M353.5,302.9c-2.2,0.4-3.7,1-4.6,1.8c-0.9,0.7-1.4,1.6-1.4,2.7c0,0.4,0.1,0.7,0.3,1.1
					c0.2,0.4,0.5,0.7,0.8,0.9c0.4,0.3,0.8,0.4,1.3,0.4c0.7,0,1.3-0.2,2-0.6c0.7-0.4,1.2-0.8,1.6-1.3V302.9z"/>
				<path class="st1" d="M363.5,295.8h-2.7v-1.1c0.9-0.7,1.7-1.6,2.7-2.6c0.9-1,1.8-2,2.5-3.1h1.1v5h5.9l-0.2,1.8h-5.8l-0.1,9.3
					c0,1,0.1,1.9,0.3,2.5c0.2,0.6,0.5,1,1,1.3c0.4,0.3,1,0.4,1.8,0.4c0.5,0,0.9-0.1,1.4-0.3c0.4-0.2,0.8-0.4,1.2-0.6
					c0.3-0.2,0.5-0.3,0.5-0.3l0.4,1.1c-0.7,1-1.5,1.7-2.5,2.3c-1,0.5-2.1,0.8-3.2,0.8c-1.4,0-2.5-0.4-3.3-1.3
					c-0.8-0.9-1.2-2.4-1.2-4.6L363.5,295.8z"/>
				<path class="st1" d="M374.6,311.8l0.3-1.7l3.2-0.8v-12.9l-3.2-1.2l0.3-1.6l5.9-0.5l0.5,0.5v15.6l3.4,0.8l-0.2,1.7H374.6z
					 M379.6,289.4c-0.4,0-0.9-0.1-1.2-0.4c-0.4-0.2-0.7-0.6-0.9-1c-0.2-0.4-0.3-0.8-0.3-1.3c0-0.7,0.2-1.2,0.7-1.7
					c0.5-0.5,1.1-0.7,1.8-0.7c0.7,0,1.3,0.2,1.8,0.7c0.5,0.5,0.8,1,0.8,1.7c0,0.5-0.1,0.9-0.3,1.3c-0.2,0.4-0.5,0.7-0.9,0.9
					C380.5,289.3,380,289.4,379.6,289.4z"/>
				<path class="st1" d="M394.8,312.4c-1.8,0-3.4-0.4-4.6-1.2c-1.3-0.8-2.3-2-3-3.4c-0.7-1.4-1-3.1-1-4.9c0-2,0.4-3.8,1.3-5.3
					c0.9-1.5,2-2.7,3.4-3.5c1.4-0.8,2.9-1.2,4.5-1.2c1.7,0,3.2,0.4,4.4,1.2c1.3,0.8,2.2,1.9,2.9,3.4c0.7,1.5,1,3.1,1,5.1
					c0,1.9-0.4,3.6-1.2,5.1c-0.8,1.5-1.8,2.7-3.2,3.5C398,312,396.5,312.4,394.8,312.4z M394.5,295.1c-1,0-1.8,0.3-2.5,0.9
					c-0.7,0.6-1.2,1.3-1.5,2.3c-0.3,1-0.5,2-0.5,3.2c0,1.6,0.2,3,0.6,4.4c0.4,1.4,1,2.5,1.8,3.3c0.8,0.9,1.9,1.3,3.2,1.3
					c0.9,0,1.7-0.3,2.4-0.9c0.7-0.6,1.1-1.3,1.5-2.3c0.3-0.9,0.5-1.9,0.5-2.9c0-1.5-0.2-3-0.6-4.4c-0.4-1.4-1-2.6-1.8-3.5
					C396.7,295.6,395.7,295.1,394.5,295.1z"/>
				<path class="st1" d="M415.2,311.8h-9.7l0.2-1.5l3.2-0.9v-12.7l-3.2-1.1l0.2-1.6l6.3-0.8l0.4,0.4l-0.4,2.7h0.2
					c0.8-1,1.7-1.7,2.8-2.4c1.1-0.6,2.3-0.9,3.5-0.9c1.6,0,2.9,0.5,3.8,1.6c0.9,1,1.3,2.5,1.3,4.4v10.5l3,0.7l-0.2,1.7h-9.4l0.2-1.5
					l2.9-0.9v-9.7c0-1.3-0.3-2.3-1-2.9c-0.7-0.6-1.5-1-2.7-1c-0.8,0-1.5,0.2-2.3,0.5c-0.7,0.3-1.3,0.8-1.9,1.3v11.8l3.1,0.7
					L415.2,311.8z"/>
				<path class="st1" d="M434.1,312.5c-1.2,0-2.3-0.2-3.2-0.5c-0.9-0.3-1.6-0.7-2.1-1.2c-0.5-0.5-0.8-1-0.8-1.6c0-0.8,0.2-1.5,0.7-2
					c0.5-0.6,1.1-0.9,1.9-0.9c0.5,1.4,1.1,2.4,1.8,3.1c0.7,0.7,1.5,1,2.4,1c0.8,0,1.5-0.2,2-0.5c0.5-0.3,0.8-0.9,0.8-1.6
					c0-0.4-0.2-0.9-0.5-1.2c-0.3-0.4-0.7-0.7-1.2-1c-0.5-0.3-1.1-0.7-2-1.2c-1.1-0.7-2.1-1.2-2.8-1.8c-0.7-0.5-1.3-1.2-1.8-1.9
					c-0.5-0.8-0.8-1.7-0.8-2.7c0-0.9,0.2-1.7,0.7-2.6c0.5-0.9,1.2-1.6,2.1-2.1c0.9-0.6,2.1-0.8,3.4-0.8c1,0,1.9,0.2,2.7,0.5
					c0.8,0.3,1.4,0.8,1.8,1.3c0.4,0.6,0.6,1.2,0.6,1.9c0,0.8-0.3,1.4-0.8,2c-0.5,0.5-1.2,0.8-2.1,0.8c-0.3-1.6-0.7-2.8-1.2-3.6
					c-0.6-0.8-1.2-1.2-2.1-1.2c-0.7,0-1.3,0.2-1.7,0.7c-0.4,0.5-0.6,1.1-0.6,1.8c0,0.6,0.2,1.1,0.5,1.5c0.3,0.5,0.8,0.9,1.3,1.2
					c0.5,0.3,1.2,0.8,2.2,1.3c1.1,0.6,2,1.2,2.7,1.7c0.7,0.5,1.3,1.1,1.8,1.8c0.5,0.7,0.7,1.5,0.7,2.5c0,1-0.3,1.9-0.9,2.7
					c-0.6,0.8-1.4,1.5-2.4,1.9C436.2,312.3,435.2,312.5,434.1,312.5z"/>
			</g>
		</g>
	</g>
</g>
</svg>
