<svg width="844" height="228" viewBox="0 0 844 228" fill="none" xmlns="http://www.w3.org/2000/svg">
<g clip-path="url(#clip0_144_24512)">
<path d="M636.798 73.0087C645.773 58.726 659.684 54.79 675.262 53.7771C675.299 54.1437 675.299 54.5131 675.262 54.8797C671.851 66.2007 672.21 77.8166 672.697 89.4197C672.951 95.4697 673.507 101.503 674.364 107.497C674.449 108.165 674.37 108.842 674.133 109.472C673.044 106.587 672.056 103.664 670.864 100.83C667.39 92.6122 662.992 85.0092 655.953 79.2654C651.607 75.4465 645.98 73.4089 640.196 73.56C639.921 73.5166 639.64 73.5306 639.371 73.6012C639.102 73.6718 638.85 73.7975 638.632 73.9703C641.687 75.6895 644.625 77.6083 647.427 79.7141C660.107 90.1377 665.261 103.677 663.428 119.78C661.235 138.935 650.043 151.063 632.26 157.243C618.228 162.174 602.909 162.006 588.989 156.769C585.412 155.517 582.035 153.755 578.963 151.538C578.745 151.32 578.486 151.146 578.201 151.028C577.916 150.91 577.611 150.849 577.302 150.849C576.994 150.849 576.688 150.91 576.403 151.028C576.119 151.146 575.86 151.32 575.642 151.538C572.792 153.648 570.51 156.432 569.001 159.641C568.378 160.891 568.029 162.258 567.975 163.654C567.922 165.049 568.166 166.439 568.691 167.733C569.216 169.027 570.01 170.194 571.02 171.157C572.031 172.121 573.235 172.858 574.552 173.321C579.68 175.385 584.937 174.988 590.181 173.859C598.438 172.09 606.143 168.628 614.067 165.872C622.939 162.795 631.914 160.384 641.427 160.974C649.709 161.474 657.299 163.936 663.607 169.487C675.223 179.744 676.146 197.232 665.838 209.143C661.001 214.687 654.82 218.894 647.889 221.361C628.723 228.599 607.714 229.355 588.078 223.515C576.45 220.118 567.026 213.451 561.154 202.527C556.459 193.87 554.704 183.921 556.154 174.18C557.436 165.205 562.769 158.538 569.872 153.205C571.603 151.922 573.449 150.756 575.437 149.358C572.6 146.852 569.948 144.144 567.5 141.255C563.792 136.557 561.082 131.151 559.536 125.368C557.99 119.585 557.641 113.548 558.51 107.625C559.379 101.703 561.448 96.0205 564.59 90.9257C567.732 85.8309 571.881 81.4312 576.783 77.9961C585.527 72.0834 595.728 68.6902 606.271 68.188C616.293 67.4284 626.356 68.9631 635.696 72.6754C636.093 72.8677 636.452 73.1497 636.798 73.0087ZM593.784 114.229C593.784 115.575 593.784 116.921 593.784 118.267C594.053 127.473 595.066 136.55 598.335 145.191C599.615 149.218 601.86 152.872 604.874 155.833C608.72 159.333 613.208 159.359 617.144 155.961C618.471 154.797 619.616 153.44 620.541 151.935C622.323 149.076 623.707 145.988 624.657 142.755C628.119 131.434 628.901 119.819 628.337 108.062C628.077 100.491 626.826 92.9864 624.618 85.7401C623.406 81.3483 621.249 77.2745 618.298 73.8036C613.913 69.0086 608.515 68.9572 604.028 73.6498C601.445 76.5634 599.506 79.9883 598.335 83.7015C594.732 93.5609 593.809 103.831 593.809 114.229H593.784ZM559.526 191.873C559.728 193.219 560.162 194.521 560.808 195.719C565.295 205.425 572.962 211.63 582.745 215.387C592.104 218.821 602.131 220.041 612.041 218.951C618.514 218.58 624.818 216.743 630.478 213.579C634.08 211.425 637.247 208.81 638.824 204.771C641.017 199.155 638.247 194.386 632.273 193.45C629.685 193.073 627.052 193.147 624.49 193.668C620.644 194.386 616.99 195.476 613.272 196.553C603.015 199.54 592.63 202.053 581.796 201.335C573.475 200.758 565.603 199.027 559.551 191.873H559.526Z" fill="white"/>
<path d="M224.254 70.1876C230.139 70.1876 236.024 70.1876 241.909 70.1876C247.456 70.205 252.993 69.7072 258.448 68.7004C262.643 67.9203 266.705 66.5475 270.513 64.6233C270.824 65.5866 270.92 66.6062 270.795 67.6106C270.795 93.6801 270.795 119.75 270.795 145.819C270.591 149.196 271.361 152.56 273.013 155.512C277.616 162.961 287.257 162.73 291.462 155.05C292.933 152.479 293.723 149.576 293.757 146.614C293.757 129.293 294.437 111.997 293.373 94.6502C293.002 88.2352 291.06 82.0096 287.719 76.5213C286.159 74.2249 284.344 72.113 282.308 70.2261H285.501C293.565 70.1364 301.642 70.521 309.707 69.7517C316.438 69.1107 323.015 67.9055 329.144 64.6233C329.926 65.5336 329.592 66.5849 329.592 67.5208C329.592 93.163 329.592 118.805 329.592 144.447C329.592 150.499 329.592 156.563 330.156 162.602C330.733 168.333 331.759 173.923 335.759 178.731C333.241 179.479 330.63 179.872 328.002 179.898C319.541 180.359 311.566 178.923 304.848 173.243C300.325 169.283 297.11 164.044 295.629 158.217C295.296 157.038 295.027 155.845 294.565 154.063C293.475 157.012 292.924 159.512 291.924 161.858C288.885 168.974 284.449 174.846 277.346 178.257C264.987 184.206 247.037 181.962 239.345 164.487C236.702 158.458 235.323 151.952 235.293 145.37C235.191 131.498 235.191 117.613 235.165 103.74C235.274 98.2708 234.697 92.8092 233.447 87.4833C231.87 81.265 229.421 75.534 224.472 71.1877C224.267 71.021 224.1 70.8287 224.254 70.1876Z" fill="white"/>
<path d="M446.098 70.2519C460.816 72.1878 475.099 70.2519 489.394 68.88C497.92 68.0723 506.344 68.3031 514.498 71.4442C524.832 75.4957 531.64 82.9832 535.832 93.0477C539.602 102.022 540.409 111.574 540.448 121.254C540.448 133.537 540.127 145.819 540.794 158.089C541.076 163.371 541.512 168.654 543.551 173.654C544.435 175.524 545.509 177.298 546.756 178.949C538.717 180.475 531.089 180.693 523.678 177.846C513.421 173.936 508.293 165.91 505.959 155.627C505.652 154.23 505.459 152.82 505.203 151.422C505.203 151.422 505.049 151.422 504.78 151.281C503.754 153.974 502.921 156.756 501.651 159.358C497.587 167.807 491.792 174.641 483.01 178.385C474.035 182.231 464.816 182.539 455.983 177.859C447.995 173.641 444.123 166.448 442.918 157.743C440.828 142.524 446.585 130.485 458.085 120.818C464.752 115.203 472.278 110.92 479.766 106.561C485.306 103.552 490.63 100.164 495.702 96.4197C499.049 93.9908 501.827 90.8627 503.844 87.2526C505.281 84.4919 505.899 81.3781 505.626 78.2779C505.254 73.252 502.062 70.5852 496.997 70.957C493.368 71.3262 489.957 72.8651 487.279 75.3418C482.522 79.4446 478.881 84.4961 475.291 89.5861C469.419 97.8813 463.816 106.394 457.098 114.062C454.204 117.439 451.072 120.606 447.726 123.536C447.596 122.579 447.742 121.605 448.149 120.728C450.521 112.555 451.907 104.127 452.277 95.6248C452.585 87.0218 451.367 78.6753 446.418 71.2647C446.281 70.9374 446.174 70.5984 446.098 70.2519ZM504.882 93.676L504.549 93.6119C504.357 94.1632 504.139 94.6888 503.998 95.253C502.063 102.691 498.659 109.666 493.984 115.767C490.42 120.562 486.202 124.741 482.445 129.472C479.055 133.364 476.923 138.192 476.33 143.319C475.778 149.486 478.548 154.743 483.522 156.41C491.972 159.23 504.664 152.948 504.805 141.896C505.036 125.78 504.882 109.728 504.882 93.676Z" fill="white"/>
<path d="M158.342 68.0735C171.381 68.0735 181.996 70.1377 191.676 75.7661C201.77 81.6038 209.289 91.0362 212.729 102.178C217.524 116.301 217.596 131.601 212.934 145.769C207.292 163.155 195.343 174.219 177.804 178.963C164.492 182.695 150.336 182.089 137.392 177.232C130.605 174.853 124.447 170.963 119.385 165.854C114.323 160.745 110.489 154.552 108.173 147.744C102.578 132.59 102.6 115.932 108.237 100.793C114.083 84.5486 125.93 74.6122 142.495 70.2018C147.658 68.7887 152.988 68.0729 158.342 68.0735ZM180.945 133.769C180.929 119.792 178.718 105.904 174.393 92.613C172.252 86.2922 169.586 80.2022 164.983 75.2276C158.406 68.1248 150.88 69.035 146.072 77.4585C142.751 83.2536 141.379 89.6642 140.533 96.1901C139.381 105.548 139.183 114.999 139.943 124.396C140.93 137.641 143.29 150.577 148.61 162.86C150.739 167.732 153.316 172.373 157.495 175.86C162.919 180.399 168.739 179.707 172.983 174.027C176.124 169.822 177.637 164.924 178.778 159.924C180.549 151.324 181.277 142.542 180.945 133.769Z" fill="white"/>
<path d="M715.379 124.652C715.379 127.819 716.443 130.742 717.353 133.627C718.728 138.326 721.107 142.67 724.328 146.358C731.841 154.769 741.329 156.935 751.868 154.051C763.817 150.833 771.099 142.332 775.959 131.357C777.335 127.78 778.482 124.118 779.395 120.395C779.627 125.434 779.331 130.483 778.51 135.46C777.505 144.17 774.813 152.6 770.587 160.282C763.83 172.039 753.535 178.629 740.278 180.526C730.91 182.007 721.317 181.027 712.443 177.68C706.789 175.645 701.639 172.416 697.345 168.212C693.051 164.009 689.712 158.929 687.557 153.32C680.031 134.293 680.262 115.126 688.839 96.4841C695.327 82.445 706.571 73.7138 721.559 69.9059C731.535 67.3081 742.008 67.2861 751.996 69.8419C768.368 74.0215 777.638 87.5991 775.664 104.459C773.702 120.818 761.561 131.845 744.893 132.537C735.338 132.851 725.895 130.412 717.687 125.511C717.046 125.203 716.456 124.511 715.379 124.652ZM714.328 112.241C714.328 113.587 714.328 114.921 714.328 116.267C714.533 122.678 714.584 122.754 720.93 123.96C721.592 124.073 722.26 124.142 722.931 124.165C729.957 124.383 735.367 121.177 739.765 116.011C745.47 109.292 747.945 101.254 748.739 92.6377C749.33 87.7852 748.995 82.8648 747.752 78.1371C746.188 72.7907 742.47 70.0598 736.918 70.2393C733.621 70.3885 730.452 71.5627 727.854 73.5984C724.01 76.6191 721.03 80.5989 719.213 85.1374C715.392 93.7916 714.315 102.933 714.328 112.292V112.241Z" fill="white"/>
<path d="M403.519 178.962H346.414C346.119 178.641 346.221 178.385 346.414 178.244C352.581 174.128 354.965 167.897 356.068 160.961C356.757 156.293 357.075 151.577 357.017 146.858C357.017 132.306 357.017 117.754 357.017 103.202C357.081 97.1369 356.282 91.0933 354.645 85.2527C353.042 79.8422 350.709 74.8933 346.324 71.1495C346.132 70.9828 346.004 70.7777 346.106 70.2136H348.67C356.363 70.1238 363.979 70.4572 371.62 69.8418C378.787 69.2648 385.723 68.034 392.672 64.4954V98.2661L393.211 98.3302C394.352 95.6634 395.416 92.9582 396.647 90.3298C399.532 84.1885 403.057 78.496 408.391 74.124C417.981 66.239 428.546 65.9826 439.944 70.111C430.161 89.6119 430.712 110.01 433.636 131.062C430.956 127.942 428.682 124.496 426.866 120.806C423.904 115.139 421.597 109.177 418.891 103.395C417.74 100.772 416.258 98.3073 414.481 96.0609C410.096 90.7016 402.942 90.3042 398.172 95.407C394.71 98.9229 392.76 103.653 392.736 108.587C392.788 123.066 392.826 137.533 392.852 151.986C392.903 156.451 393.493 160.894 394.608 165.218C395.181 167.944 396.288 170.529 397.866 172.824C399.444 175.119 401.461 177.079 403.801 178.59L403.519 178.962Z" fill="white"/>
<path d="M94.1716 70.9702C81.8762 87.9966 74.2605 106.869 73.2989 128.46C72.43 127.583 71.9064 126.422 71.8245 125.191C69.6449 117.036 68.7859 108.664 67.8115 100.318C67.0037 93.3174 66.4396 86.2145 64.2857 79.4706C63.8015 77.859 63.112 76.3164 62.2343 74.8807C61.036 72.7645 59.057 71.2013 56.7208 70.5256C54.3846 69.8499 51.8767 70.1153 49.7337 71.2651C45.0925 73.4319 42.0411 77.2141 39.6692 81.522C36.3503 87.6775 34.1781 94.3852 33.2587 101.318C31.6834 110.89 31.9358 120.674 34.0023 130.152C35.4382 136.371 37.8486 142.217 42.2847 146.922C50.3363 155.448 60.2342 157.064 70.9911 153.641C80.0428 150.782 85.7866 144.038 89.9535 135.819C92.0092 131.679 93.5259 127.293 94.4665 122.767C94.6735 121.794 94.9696 120.841 95.3512 119.921C95.4287 124.33 95.1457 128.738 94.505 133.101C93.3254 142.614 90.9151 151.743 86.0559 160.102C79.0171 172.18 68.5551 179.18 54.657 180.77C41.4385 182.296 29.1816 179.757 18.6426 171.18C10.732 164.769 5.91129 156.243 3.25732 146.538C-0.647216 132.705 -0.647216 118.061 3.25732 104.228C8.62936 85.4324 20.9376 73.7524 40.2718 69.7907C48.6183 68.0855 56.9392 68.406 65.3755 69.4189C74.6323 70.5343 83.8891 72.0601 93.2613 70.5087C93.569 70.4061 93.787 70.4702 94.1716 70.9702Z" fill="white"/>
<path d="M821.037 1.60825L818.999 0.428711L816.973 1.60825L796.344 13.4934L773.676 0.428711L751.021 13.4934L748.983 14.6729V43.1614L769.612 55.0465L796.344 70.4318L841.666 44.3409L843.705 43.1742V14.6729L821.037 1.60825ZM821.037 6.30077L839.628 17.0192V38.456L821.037 27.7376V6.30077ZM755.098 15.8525L773.676 5.12123L792.267 15.8525L773.676 26.5709L755.098 15.8525ZM753.06 40.8023V19.3655L773.676 31.2634L800.421 15.8781L816.973 6.32642V27.7633L796.28 39.6997L773.676 52.7259L753.06 40.8023ZM837.589 41.9818L796.344 65.7649L777.753 55.0465L799.318 42.6101L818.999 31.2634L837.474 41.9049L837.589 41.9818Z" fill="#F2B456"/>
</g>
<defs>
<clipPath id="clip0_144_24512">
<rect width="843.332" height="227.036" fill="white" transform="translate(0.359924 0.428955)"/>
</clipPath>
</defs>
</svg>
