<svg width="74" height="52" viewBox="0 0 74 52" fill="none" xmlns="http://www.w3.org/2000/svg">
<g filter="url(#filter0_di_280_173)">
<path d="M11.0981 7C8.83841 7 7 8.68014 7 10.7449V34.9029C7 36.9677 8.83841 38.6478 11.0981 38.6478H28.5L34.7494 43.9027C35.5233 44.6104 36.5526 45 37.6473 45C38.7419 45 39.7709 44.6104 40.5452 43.9031L46 38.6482H62.9019C65.1616 38.6482 67 36.9681 67 34.9033V10.7449C67 8.68014 65.1616 7 62.9019 7H11.0981Z" fill="#F9BC32" fill-opacity="0.01" shape-rendering="crispEdges"/>
<path d="M11.0981 7C8.83841 7 7 8.68014 7 10.7449V34.9029C7 36.9677 8.83841 38.6478 11.0981 38.6478H28.5L34.7494 43.9027C35.5233 44.6104 36.5526 45 37.6473 45C38.7419 45 39.7709 44.6104 40.5452 43.9031L46 38.6482H62.9019C65.1616 38.6482 67 36.9681 67 34.9033V10.7449C67 8.68014 65.1616 7 62.9019 7H11.0981Z" stroke="#FFF3D8" stroke-linecap="round" shape-rendering="crispEdges"/>
</g>
<defs>
<filter id="filter0_di_280_173" x="0.7" y="0.7" width="72.6" height="50.6" filterUnits="userSpaceOnUse" color-interpolation-filters="sRGB">
<feFlood flood-opacity="0" result="BackgroundImageFix"/>
<feColorMatrix in="SourceAlpha" type="matrix" values="0 0 0 0 0 0 0 0 0 0 0 0 0 0 0 0 0 0 127 0" result="hardAlpha"/>
<feOffset/>
<feGaussianBlur stdDeviation="2.9"/>
<feComposite in2="hardAlpha" operator="out"/>
<feColorMatrix type="matrix" values="0 0 0 0 1 0 0 0 0 0.742055 0 0 0 0 0.158506 0 0 0 1 0"/>
<feBlend mode="normal" in2="BackgroundImageFix" result="effect1_dropShadow_280_173"/>
<feBlend mode="normal" in="SourceGraphic" in2="effect1_dropShadow_280_173" result="shape"/>
<feColorMatrix in="SourceAlpha" type="matrix" values="0 0 0 0 0 0 0 0 0 0 0 0 0 0 0 0 0 0 127 0" result="hardAlpha"/>
<feOffset/>
<feGaussianBlur stdDeviation="5.1"/>
<feComposite in2="hardAlpha" operator="arithmetic" k2="-1" k3="1"/>
<feColorMatrix type="matrix" values="0 0 0 0 1 0 0 0 0 0.752607 0 0 0 0 0.192929 0 0 0 1 0"/>
<feBlend mode="normal" in2="shape" result="effect2_innerShadow_280_173"/>
</filter>
</defs>
</svg>
