<svg width="68" height="38" viewBox="0 0 68 38" fill="none" xmlns="http://www.w3.org/2000/svg">
<path d="M8.0981 0C5.83841 0 4 1.68014 4 3.74491V27.9029C4 29.9677 5.83841 31.6478 8.0981 31.6478H25.5L31.7494 36.9027C32.5233 37.6104 33.5526 38 34.6473 38C35.7419 38 36.7709 37.6104 37.5452 36.9031L43 31.6482H59.9019C62.1616 31.6482 64 29.9681 64 27.9033V3.74491C64 1.68014 62.1616 0 59.9019 0H8.0981Z" fill="#D9D9D9"/>
<path d="M13.8752 20V11.36H16.6292C16.7012 11.36 16.8432 11.362 17.0552 11.366C17.2712 11.37 17.4792 11.384 17.6792 11.408C18.3632 11.496 18.9412 11.74 19.4132 12.14C19.8892 12.536 20.2492 13.042 20.4932 13.658C20.7372 14.274 20.8592 14.948 20.8592 15.68C20.8592 16.412 20.7372 17.086 20.4932 17.702C20.2492 18.318 19.8892 18.826 19.4132 19.226C18.9412 19.622 18.3632 19.864 17.6792 19.952C17.4832 19.976 17.2772 19.99 17.0612 19.994C16.8452 19.998 16.7012 20 16.6292 20H13.8752ZM15.3452 18.638H16.6292C16.7492 18.638 16.9012 18.634 17.0852 18.626C17.2732 18.618 17.4392 18.6 17.5832 18.572C17.9912 18.496 18.3232 18.314 18.5792 18.026C18.8352 17.738 19.0232 17.388 19.1432 16.976C19.2672 16.564 19.3292 16.132 19.3292 15.68C19.3292 15.212 19.2672 14.772 19.1432 14.36C19.0192 13.948 18.8272 13.602 18.5672 13.322C18.3112 13.042 17.9832 12.864 17.5832 12.788C17.4392 12.756 17.2732 12.738 17.0852 12.734C16.9012 12.726 16.7492 12.722 16.6292 12.722H15.3452V18.638ZM25.2775 20V11.36H28.8475C28.9315 11.36 29.0395 11.364 29.1715 11.372C29.3035 11.376 29.4255 11.388 29.5375 11.408C30.0375 11.484 30.4495 11.65 30.7735 11.906C31.1015 12.162 31.3435 12.486 31.4995 12.878C31.6595 13.266 31.7395 13.698 31.7395 14.174C31.7395 14.878 31.5615 15.484 31.2055 15.992C30.8495 16.496 30.3035 16.808 29.5675 16.928L28.9495 16.982H26.7235V20H25.2775ZM30.2395 20L28.5355 16.484L30.0055 16.16L31.8775 20H30.2395ZM26.7235 15.632H28.7875C28.8675 15.632 28.9575 15.628 29.0575 15.62C29.1575 15.612 29.2495 15.596 29.3335 15.572C29.5735 15.512 29.7615 15.406 29.8975 15.254C30.0375 15.102 30.1355 14.93 30.1915 14.738C30.2515 14.546 30.2815 14.358 30.2815 14.174C30.2815 13.99 30.2515 13.802 30.1915 13.61C30.1355 13.414 30.0375 13.24 29.8975 13.088C29.7615 12.936 29.5735 12.83 29.3335 12.77C29.2495 12.746 29.1575 12.732 29.0575 12.728C28.9575 12.72 28.8675 12.716 28.7875 12.716H26.7235V15.632ZM35.5994 20L38.3234 11.36H40.4414L43.1654 20H41.6774L39.2054 12.248H39.5294L37.0874 20H35.5994ZM37.1174 18.128V16.778H41.6534V18.128H37.1174ZM50.5798 20.18C50.0198 20.18 49.4938 20.082 49.0018 19.886C48.5138 19.686 48.0838 19.394 47.7118 19.01C47.3438 18.626 47.0558 18.156 46.8478 17.6C46.6398 17.04 46.5358 16.4 46.5358 15.68C46.5358 14.736 46.7118 13.93 47.0638 13.262C47.4158 12.59 47.8978 12.076 48.5098 11.72C49.1218 11.36 49.8118 11.18 50.5798 11.18C51.6438 11.18 52.4858 11.428 53.1058 11.924C53.7298 12.416 54.1518 13.108 54.3718 14L52.8958 14.234C52.7318 13.722 52.4638 13.314 52.0918 13.01C51.7198 12.702 51.2458 12.548 50.6698 12.548C50.0898 12.54 49.6078 12.666 49.2238 12.926C48.8398 13.186 48.5498 13.552 48.3538 14.024C48.1618 14.496 48.0658 15.048 48.0658 15.68C48.0658 16.312 48.1618 16.862 48.3538 17.33C48.5458 17.794 48.8338 18.156 49.2178 18.416C49.6058 18.676 50.0898 18.81 50.6698 18.818C51.1058 18.822 51.4878 18.744 51.8158 18.584C52.1438 18.42 52.4118 18.174 52.6198 17.846C52.8278 17.514 52.9678 17.1 53.0398 16.604H51.5158V15.47H54.5758C54.5838 15.534 54.5898 15.628 54.5938 15.752C54.5978 15.876 54.5998 15.95 54.5998 15.974C54.5998 16.79 54.4378 17.516 54.1138 18.152C53.7938 18.784 53.3338 19.28 52.7338 19.64C52.1338 20 51.4158 20.18 50.5798 20.18Z" fill="#786B6F"/>
</svg>
