<?xml version="1.0" encoding="utf-8"?>
<!-- Generator: Adobe Illustrator 24.2.1, SVG Export Plug-In . SVG Version: 6.00 Build 0)  -->
<!DOCTYPE svg PUBLIC "-//W3C//DTD SVG 1.1//EN" "http://www.w3.org/Graphics/SVG/1.1/DTD/svg11.dtd" [
	<!ENTITY ns_extend "http://ns.adobe.com/Extensibility/1.0/">
	<!ENTITY ns_ai "http://ns.adobe.com/AdobeIllustrator/10.0/">
	<!ENTITY ns_graphs "http://ns.adobe.com/Graphs/1.0/">
	<!ENTITY ns_vars "http://ns.adobe.com/Variables/1.0/">
	<!ENTITY ns_imrep "http://ns.adobe.com/ImageReplacement/1.0/">
	<!ENTITY ns_sfw "http://ns.adobe.com/SaveForWeb/1.0/">
	<!ENTITY ns_custom "http://ns.adobe.com/GenericCustomNamespace/1.0/">
	<!ENTITY ns_adobe_xpath "http://ns.adobe.com/XPath/1.0/">
]>
<svg version="1.1" id="Layer_1" xmlns:x="&ns_extend;" xmlns:i="&ns_ai;" xmlns:graph="&ns_graphs;"
	 xmlns="http://www.w3.org/2000/svg" xmlns:xlink="http://www.w3.org/1999/xlink" x="0px" y="0px" viewBox="0 0 1408.9 490.5"
	 style="enable-background:new 0 0 1408.9 490.5;" xml:space="preserve">
<style type="text/css">
	.st0{fill:#E6DFD3;}
	.st1{fill:none;stroke:#FFC60A;stroke-miterlimit:10;}
	.st2{fill:#FFC60A;}
</style>
<metadata><?xpacket begin="﻿" id="W5M0MpCehiHzreSzNTczkc9d"?>
<x:xmpmeta xmlns:x="adobe:ns:meta/" x:xmptk="Adobe XMP Core 6.0-c002 79.164460, 2020/05/12-16:04:17        ">
   <rdf:RDF xmlns:rdf="http://www.w3.org/1999/02/22-rdf-syntax-ns#">
      <rdf:Description rdf:about=""
            xmlns:xmp="http://ns.adobe.com/xap/1.0/"
            xmlns:xmpGImg="http://ns.adobe.com/xap/1.0/g/img/"
            xmlns:xmpTPg="http://ns.adobe.com/xap/1.0/t/pg/"
            xmlns:stDim="http://ns.adobe.com/xap/1.0/sType/Dimensions#"
            xmlns:xmpG="http://ns.adobe.com/xap/1.0/g/"
            xmlns:dc="http://purl.org/dc/elements/1.1/"
            xmlns:xmpMM="http://ns.adobe.com/xap/1.0/mm/"
            xmlns:stRef="http://ns.adobe.com/xap/1.0/sType/ResourceRef#"
            xmlns:stEvt="http://ns.adobe.com/xap/1.0/sType/ResourceEvent#">
         <xmp:CreatorTool>Adobe Illustrator 24.2 (Windows)</xmp:CreatorTool>
         <xmp:CreateDate>2024-02-23T19:36:40+06:00</xmp:CreateDate>
         <xmp:MetadataDate>2024-02-23T19:36:40+06:00</xmp:MetadataDate>
         <xmp:ModifyDate>2024-02-23T19:36:40+06:00</xmp:ModifyDate>
         <xmp:Thumbnails>
            <rdf:Alt>
               <rdf:li rdf:parseType="Resource">
                  <xmpGImg:width>256</xmpGImg:width>
                  <xmpGImg:height>108</xmpGImg:height>
                  <xmpGImg:format>JPEG</xmpGImg:format>
                  <xmpGImg:image>/9j/4AAQSkZJRgABAgEASABIAAD/7QAsUGhvdG9zaG9wIDMuMAA4QklNA+0AAAAAABAASAAAAAEA&#xA;AQBIAAAAAQAB/+4ADkFkb2JlAGTAAAAAAf/bAIQABgQEBAUEBgUFBgkGBQYJCwgGBggLDAoKCwoK&#xA;DBAMDAwMDAwQDA4PEA8ODBMTFBQTExwbGxscHx8fHx8fHx8fHwEHBwcNDA0YEBAYGhURFRofHx8f&#xA;Hx8fHx8fHx8fHx8fHx8fHx8fHx8fHx8fHx8fHx8fHx8fHx8fHx8fHx8fHx8f/8AAEQgAbAEAAwER&#xA;AAIRAQMRAf/EAaIAAAAHAQEBAQEAAAAAAAAAAAQFAwIGAQAHCAkKCwEAAgIDAQEBAQEAAAAAAAAA&#xA;AQACAwQFBgcICQoLEAACAQMDAgQCBgcDBAIGAnMBAgMRBAAFIRIxQVEGE2EicYEUMpGhBxWxQiPB&#xA;UtHhMxZi8CRygvElQzRTkqKyY3PCNUQnk6OzNhdUZHTD0uIIJoMJChgZhJRFRqS0VtNVKBry4/PE&#xA;1OT0ZXWFlaW1xdXl9WZ2hpamtsbW5vY3R1dnd4eXp7fH1+f3OEhYaHiImKi4yNjo+Ck5SVlpeYmZ&#xA;qbnJ2en5KjpKWmp6ipqqusra6voRAAICAQIDBQUEBQYECAMDbQEAAhEDBCESMUEFURNhIgZxgZEy&#xA;obHwFMHR4SNCFVJicvEzJDRDghaSUyWiY7LCB3PSNeJEgxdUkwgJChgZJjZFGidkdFU38qOzwygp&#xA;0+PzhJSktMTU5PRldYWVpbXF1eX1RlZmdoaWprbG1ub2R1dnd4eXp7fH1+f3OEhYaHiImKi4yNjo&#xA;+DlJWWl5iZmpucnZ6fkqOkpaanqKmqq6ytrq+v/aAAwDAQACEQMRAD8A9U4q7FXYq7FXYq7FXYq7&#xA;FXYq7FXYq7FXYq7FXYq7FXYq7FXYq7FXYq7FXYqlIuJ7iaQG5FvwNETpWn3ZXZPVnSIjj1CWAK7+&#xA;k6naQUPJae2HdGyGi+vPLNH9ZI9I0rTrU0yBJFpoK0bXX19oGmJ4xjsKcqDfcHAYy/nb/BNjuWXL&#xA;TpfwxlpDGwJdQQQevbb9WY2THIEXxHv3B/HyZxIroo29vcTzT8GWII5AHEVpU9aDJYcA39MR8Bfx&#xA;ROfmqJPMLa5UtSWAgCRNq707bZdwCjW3uY23NcXJSzRZCrygcnHflQAnCJHktDmveW8spEMsnqwu&#xA;aMaUIydkMdimWWMXYq7FXYq7FXYq7FXYq7FXYq7FXYq7FXYq7FXYq7FXYq7FXYq7FXYq7FUolmi9&#xA;R1vrej1+F4xSv475UT3s/ciNISVY5CwKxE/u1brTJQRJ1iv+m3dRsW/icQNypU7n1LW/+sULRMtC&#xA;acqfq8MrMTE2D+lkCCGo5Jru/jmjjpHGKFiSAevt743MnkPn+xaACnBZm4urrnVeLmnFqdSf8k4A&#xA;JEnYfP8AYpIV7izWCwlVD1oTQbncdThMDXP5IEhahPSOLT34khPiam5244aAAW7tUnkk1Bo4o42W&#xA;IHk7sKe2SJ4lGyaZYwdirsVdirsVdirsVdirsVdirsVdirsVdirsVdirsVdirsVdirsVdirsVUK3&#xA;u392djXqN6bd/HBunZom/r0jp9ODddnE31BQR1p8XXrjuuzgb/aqx++5x3XZtTfV+JY6VFSK9O+H&#xA;ddnE31dljp9ODddnE3tNhHWg8etN/wAcO67OrfcOkfPw3p29/njuuzZN3z2CcK79a0r/AEx3VWwo&#xA;dirsVdirsVdirsVdirsVdirsVdirsVdirsVdirsVdirsVdirsVdirsVdirsVdirsVdirsVdirsVd&#xA;irsVdirsVdirsVdirsVdirsVdirsVdirsVdirsVdirsVdirsVdirsVdirsVdirsVdirsVdirsVdi&#xA;rsVdirsVdirsVdirsVdirsVdirsVdirsVdirsVdirsVdirsVdirsVdirsVdirsVdirsVdirsVdir&#xA;sVdirsVdirsVdirsVdirsVdirsVdirsVdirsVdirsVdirsVdirsVdirsVdirsVdirsVdirsVdirs&#xA;VdirsVdirsVdirsVdirsVUpLhEuIoDu8vIj2CiuY+TUCOSMOsr+xnGBMSe5uO6t3AKuPiPFQdiTS&#xA;uwPtvhhqccqojc19l/dv7t1OOQ6OkubeNuMkqI1K8WYA06V3w5NTjgalKIPmQFjjkeQK9WVhVSCD&#xA;0I3GWxkCLG7Eim8KHYq7FXYq7FXYq7FXYq7FXYq7FXYq7FXYq7FXYq7FXYq7FXYq7FXYq7FXYq7F&#xA;XYq7FXYqg5UcTCUijNJwQ+CiNgv3sTmtyxPHx9TKh7uCVf7In5uREiq8v0j9CEtpIXvY59/q8EQi&#xA;V6GgkpU12/lama/T5ISzxyf5OEBEHoJVvf8Ammr5XY503TiRAx/iJv4I9XWW5Vo6FI1IMg6EtT4Q&#xA;e/TfNtGYyZQY7iIO/v6D9PwcYjhjR6r2tbZjUxJyP7VAD9/XLZaXETZiL92/zYjJLvWtHLDRoi0i&#xA;D7cTHkaeKsd6+xOVyxzx7wuQ6xJv5E735E17mQkJc9vNVjkSRA6Gqt0OZGPJGcRKJsFrlEg0V2TQ&#xA;6tcVcSAKnYDEmlQ/rST7W5onecio/wBgO/z6fPMTxpZdsf0/zv8Aie/3/T/W5NvCI/Vz7v1/i/cu&#xA;igaKQ8WLRsNwxJbl41PiMniwmEtjcT3mzff8fsrZEp2PNWzIa3Yq7FXYq7FXYq7FXYq7FXYq7FXY&#xA;q7FXYq7FXYq7FXYqhb//AI9v+M6fxyMkhAQmVFt1O8UswZT4FXIIyAZI3UYYmVHZQW5otfYnpk5B&#xA;iCoTQN9YmjhVAgjUlWr2Ndqd65XOAlseTISrdDBIleOvpjlEpJl5EE/RgjADl1SSSq3IhpF8SUEZ&#xA;opqIzvvxPWuSKAsDRtMzP6a1CbTcifsDpTFUwvnVTbyNsiyAs3gCDk5MQl8yu/qSRNWOScBQBuW7&#xA;FTtlEhIGxy7vPybBXItmeV0n5hlZmjEtAdlUUb5ZLxPfv5H8BHC3M8DWs/1aNhH8PMk0X7QpxG++&#xA;R4yeQoef4P6E13lUmDrcSPd8ZCsQZFFeP2qAEHrv44zxCX17+XT9vxtEZVyUh6kME0MqsvqpzXlT&#xA;7Q+10yzkEKtrAn1j05kVQ0Yoi14uOtd+4wgboJUjFEumiQKAxehY+AbvgrZPVtvq/GMMYuHqrz9O&#xA;tKUPWuOyozT+PKf0v95+Q9Lw6fFSuTixKMySHYq7FXYq7FXYq7FXYq7FXYq7FXYq7FXYq7FVAXls&#xA;3pfF/ekhKg9QaYOIJpzXlqsYctROXAGn7Qx4gtOlvbeN/TevL/VJ7V2wGQWlpv7UMR8RI60Un+GP&#xA;EFp312zL8CaEHjUqaV6UrTHiC0V31u1Mgir8XLiNjTl4V6Y2Fpqe5hjk4cGkkpyKovIgeJxJUBo3&#xA;0REfBGk9QEqFA7da1Ix4lpfJcRxxK7qw5EBY6VavhTCStLDfQiJpOLVDBWSlGqenXBxLTRv4QCpj&#xA;cMCq+mQK/F070x4lpfJcxpAZpEZQNuJA5dfnhJWlst7EqJIY3dHAKsACPi7bnrgMlpz3saH4o3DK&#xA;nqEUFQtePjjxLTct3BHVSpYBPUPECnGvucTJaWtdxrII/Qck7rQLuB3G+NrS430K8lKtzVgnp0HI&#xA;k9Kb9MeJaRGSQ7FXYq7FXYq7FXYq7FXYq7FXYq7FXYq7FXYqljafPznYD7Jrb7jqW5HK+Esrd9Qu&#xA;HWONqKiId2+Krv8Aa6HtjwlbV0iuSLUyL8URPM1HSlAclR2Qp+hcLcSv6chVmqvCQKD8xXBRtNrf&#xA;qVwAXoWHqljDyHFlrsevXBwlbb+r3IueSR8P3nJnDfAV91Nd8NG1tXlhuUuTPCFfmoVlY0pTuMJB&#xA;tClHpxBiEtGVQxehI+Jj2wCKbV7m3dliMNOUJBVW6EAUpXCQgFTmt7qeArKVqXBCjoFHauJBK2pS&#xA;adIOaRhWiZ1ccia7dVJ8MjwptebKZ1ij+GFIyWIQ8vi7dcPCtuFlOLb0KghZAyE/y1rjw7Utqz25&#xA;e7MjUMbRemR3qWrhrdFqEdhMttMjMGkcBEPbivTAI7JtEGFzcRSbcUVlPzNMlW6Lc1tW8SegoqkE&#xA;969sFb2t7K+SQ7FXYq7FXYq7FXYq7FXYq7FXYq7FXYq7FXYq5gSCAaHscVStNRn5Rlj8CbXGw+0S&#xA;QP1ZXxFnS76xeFYRzbk6F24IrHrtt8jjZRQRF9LNFDFwYhmcKxChiQQexyUigKZuLhSilyaxO55K&#xA;FNR0qMFlNLIL6Z2gjY0chjIKDccOSnESUhuC4uglvJJIHWZuJQqARWu4IxBKkK0slxJdGCJxGEUM&#xA;WoGJJ+eEk2hTtruaWSEMQOQcOB0JUihwApIUWvLn4KyFQTJUqgY0U7bUwcRWkXbPPNaci/F2J4SA&#xA;DpXY06ZIWQgoZZ7sWkk5m5FW4heK/wA4FenhkbNJpdLezc5uPKMJFyVWUA1rSuEyWlgu7rjNSQsI&#xA;0qSyhSGJ22wWVpF2s0jzTqxqqFeI22qKnJAoLdnLJIkhc1KyMo+Q6dMYlSr5JDsVdirsVdirsVdi&#xA;rsVdirsVdirsVdirsVdirsVdiqCb9Henc1+zy/fdftV7fTkNmW7c/wBTrHy514fB6fL7P+xwmkC1&#xA;aT0OMPOtOS+nWteVNq4Sq2f6t6w9SvPg3j9nvgNKFg+o+rBT+89P911rw49/ox2XdZa/o/1E9Ply&#xA;39Lnyp78a7YBSTa69+p+qPU5erx/3XWvH3p2wypRa2T9HejDSvHf0vT5cvfpvg2XdfD9R5Qel1o3&#xA;pden7VcIpBtUtPq/BvQr6fI+NK96V7YRXRSp/wChfVH6+hy+Lr9rkP44NqXdu4+p+pL6teXp/vOv&#xA;2K/1xNKLW3H1H1D6lefp/Fxr9j3piaUWtb6l67U9T1NufDnTptWmDZO7cX1P1j6fqcuZrTnx5V3r&#xA;2xFLujcmxdirsVdirsVdirsVdirsVdirsVdirsVdirsVdir/AP/Z</xmpGImg:image>
               </rdf:li>
            </rdf:Alt>
         </xmp:Thumbnails>
         <xmpTPg:MaxPageSize rdf:parseType="Resource">
            <stDim:w>497.043137</stDim:w>
            <stDim:h>173.046486</stDim:h>
            <stDim:unit>Millimeters</stDim:unit>
         </xmpTPg:MaxPageSize>
         <xmpTPg:NPages>1</xmpTPg:NPages>
         <xmpTPg:HasVisibleTransparency>False</xmpTPg:HasVisibleTransparency>
         <xmpTPg:HasVisibleOverprint>False</xmpTPg:HasVisibleOverprint>
         <xmpTPg:PlateNames>
            <rdf:Seq>
               <rdf:li>Cyan</rdf:li>
               <rdf:li>Magenta</rdf:li>
               <rdf:li>Yellow</rdf:li>
            </rdf:Seq>
         </xmpTPg:PlateNames>
         <xmpTPg:SwatchGroups>
            <rdf:Seq>
               <rdf:li rdf:parseType="Resource">
                  <xmpG:groupName>Default Swatch Group</xmpG:groupName>
                  <xmpG:groupType>0</xmpG:groupType>
               </rdf:li>
            </rdf:Seq>
         </xmpTPg:SwatchGroups>
         <dc:format>image/svg+xml</dc:format>
         <xmpMM:DerivedFrom rdf:parseType="Resource">
            <stRef:instanceID>xmp.iid:cd6cd20f-a0e1-e444-a59c-befbc9f540fb</stRef:instanceID>
            <stRef:documentID>xmp.did:cd6cd20f-a0e1-e444-a59c-befbc9f540fb</stRef:documentID>
            <stRef:originalDocumentID>xmp.did:cd6cd20f-a0e1-e444-a59c-befbc9f540fb</stRef:originalDocumentID>
         </xmpMM:DerivedFrom>
         <xmpMM:DocumentID>xmp.did:bd63238b-4259-ff45-913c-aebe2e75283e</xmpMM:DocumentID>
         <xmpMM:InstanceID>xmp.iid:bd63238b-4259-ff45-913c-aebe2e75283e</xmpMM:InstanceID>
         <xmpMM:OriginalDocumentID>xmp.did:cd6cd20f-a0e1-e444-a59c-befbc9f540fb</xmpMM:OriginalDocumentID>
         <xmpMM:History>
            <rdf:Seq>
               <rdf:li rdf:parseType="Resource">
                  <stEvt:action>saved</stEvt:action>
                  <stEvt:instanceID>xmp.iid:cd6cd20f-a0e1-e444-a59c-befbc9f540fb</stEvt:instanceID>
                  <stEvt:when>2024-02-23T19:33:10+06:00</stEvt:when>
                  <stEvt:softwareAgent>Adobe Illustrator 24.2 (Windows)</stEvt:softwareAgent>
                  <stEvt:changed>/</stEvt:changed>
               </rdf:li>
               <rdf:li rdf:parseType="Resource">
                  <stEvt:action>saved</stEvt:action>
                  <stEvt:instanceID>xmp.iid:bd63238b-4259-ff45-913c-aebe2e75283e</stEvt:instanceID>
                  <stEvt:when>2024-02-23T19:36:40+06:00</stEvt:when>
                  <stEvt:softwareAgent>Adobe Illustrator 24.2 (Windows)</stEvt:softwareAgent>
                  <stEvt:changed>/</stEvt:changed>
               </rdf:li>
            </rdf:Seq>
         </xmpMM:History>
      </rdf:Description>
   </rdf:RDF>
</x:xmpmeta>
                                                                                                    
                                                                                                    
                                                                                                    
                                                                                                    
                                                                                                    
                                                                                                    
                                                                                                    
                                                                                                    
                                                                                                    
                                                                                                    
                                                                                                    
                                                                                                    
                                                                                                    
                                                                                                    
                                                                                                    
                                                                                                    
                                                                                                    
                                                                                                    
                                                                                                    
                                                                                                    
                           
<?xpacket end="w"?>
	</metadata>
<g>
	<g>
		<path class="st0" d="M1901.7-504.9c-22.8-5.9-23.9-8.9-23.9-8.9c-12.3-14.1,8.4-21.4,8.4-21.4c33.4-8.5,41.2,19.1,41.2,19.1
			l28.9-4.9c-5.2-17.2-17.4-27.1-17.4-27.1c-37.7-26.6-75.7-3.5-75.7-3.5c-21.2,13-17.1,35.7-17.1,35.7
			c1.3,19.9,21.5,27.8,21.5,27.8l49.2,14.3c15.5,4.1,11.7,16.8,11.7,16.8c-4.5,11.3-16.9,12.5-16.9,12.5c-35.8,6.8-43-23.4-43-23.4
			l-28.1,3.8c3.7,31,34.4,40.3,34.4,40.3c42.1,12.7,68.5-9.4,68.5-9.4c24.7-21.2,8.9-48.5,8.9-48.5
			C1944.1-497.1,1901.7-504.9,1901.7-504.9z"/>
		<polygon class="st0" points="1967.1,-534.5 2012.3,-534.5 2012.3,-422.8 2038.4,-422.8 2038.4,-534.9 2084.3,-534.9 
			2084.3,-558.2 1967.1,-558.2 		"/>
		<rect x="2373.7" y="-558.2" class="st0" width="27.9" height="135.4"/>
		<path class="st0" d="M2485-558.2h-54.5v135.4h56.8c0,0,57.8-1.2,59.7-69.9C2547.1-492.6,2545.2-558.2,2485-558.2z M2487.2-447.5
			H2457v-86h28.9c32,0,33,41.6,33,41.6C2517.9-448.2,2487.2-447.5,2487.2-447.5z"/>
		<path class="st0" d="M2308.4-558.2h-64.4v135.4h26.4v-45.4h41.4c0,0,38.6-1.8,40-43.4C2351.8-511.6,2352.9-558.2,2308.4-558.2z
			 M2308.8-492.5h-39.5v-40.6h37.8c16.1-0.2,17.6,18.7,17.6,18.7C2325.7-495.2,2308.8-492.5,2308.8-492.5z"/>
		<path class="st0" d="M2188.4-558.2v88.6c0,0-1.4,23.6-27.5,25.8c0,0-1.1,0.1-3,0.1v0c-1.9,0-3-0.1-3-0.1
			c-26.1-2.1-27.5-25.8-27.5-25.8v-88.6h-27.5v85.7c-0.4,54.3,57.2,52.3,57.2,52.3c0.3,0,0.6,0,0.9,0l0,0c0.3,0,0.6,0,0.9,0
			c0,0,57.5,2,57.2-52.3v-85.7L2188.4-558.2L2188.4-558.2z"/>
	</g>
	<g>
		<path class="st0" d="M1849.7-367.2h-4.1v-19.4h4.1V-367.2z"/>
		<path class="st0" d="M1864.6-367.2h-4.4v-16.4h-6v-3h16.4v3h-6V-367.2z"/>
		<path class="st0" d="M1876.6-386.6v3.2l-2.5,3.8h-1.2l1.8-3.8h-1.8v-3.2H1876.6z"/>
		<path class="st0" d="M1879.9-371.9l4-0.7c0.5,1.9,2.3,2.9,5.5,2.9c1.4,0,2.6-0.3,3.3-0.7c0.8-0.5,1.2-1.1,1.2-1.8
			c0-0.5-0.2-1-0.5-1.5s-1.1-0.8-2.3-1.1l-4.3-1c-1.5-0.3-2.6-0.7-3.3-1.1c-0.7-0.4-1.3-1-1.7-1.8c-0.4-0.8-0.6-1.6-0.6-2.5
			c0-1.7,0.8-3.1,2.3-4.2c1.5-1,3.4-1.6,5.8-1.6c1.9,0,3.7,0.4,5.2,1.1c1.5,0.7,2.5,1.8,2.9,3.1l-3.9,0.8c-0.6-1.5-2-2.2-4.2-2.2
			c-1.3,0-2.2,0.2-2.9,0.7c-0.7,0.5-1,1-1,1.7c0,1.1,1.1,1.9,3.2,2.3l3.8,0.8c2.3,0.5,3.9,1.2,4.7,2.2c0.8,1,1.2,2.1,1.2,3.2
			c0,1.9-0.8,3.4-2.5,4.5c-1.7,1.1-3.8,1.6-6.5,1.6c-2.2,0-4.2-0.4-5.9-1.2C1881.6-368.9,1880.5-370.2,1879.9-371.9z"/>
		<path class="st0" d="M1935.4-386.6l-6.1,19.4h-4.3l-4.5-14.2l-4.1,14.2h-4.2l-6.2-19.4h4.3l4.4,14.1l4.1-14.1h4.1l4.5,14.1
			l4.3-14.1H1935.4z"/>
		<path class="st0" d="M1955-367.2h-4.1v-8.4h-8.6v8.4h-4.1v-19.4h4.1v8h8.6v-8h4.1V-367.2z"/>
		<path class="st0" d="M1974.7-367.2h-14.7v-19.4h14.6v2.9H1964v5.3h8.4v2.8h-8.4v5.4h10.6V-367.2z"/>
		<path class="st0" d="M1995.8-367.2h-4.3l-3.5-8h-5.7v8h-4.1v-19.4h9.8c2.7,0,4.7,0.5,6,1.6s1.9,2.4,1.9,4.1c0,2.5-1.4,4.2-4.1,5.1
			L1995.8-367.2z M1982.3-378h5.1c1.5,0,2.6-0.3,3.3-0.8s1.1-1.3,1.1-2.2c0-0.9-0.4-1.5-1.1-2.1s-1.7-0.8-3-0.8h-5.4L1982.3-378
			L1982.3-378z"/>
		<path class="st0" d="M2014.7-367.2H2000v-19.4h14.6v2.9h-10.5v5.3h8.4v2.8h-8.4v5.4h10.6V-367.2z"/>
		<path class="st0" d="M2043.4-367.2h-4.3l-3.5-8h-5.7v8h-4.1v-19.4h9.8c2.7,0,4.7,0.5,6,1.6s1.9,2.4,1.9,4.1c0,2.5-1.4,4.2-4.1,5.1
			L2043.4-367.2z M2029.8-378h5.1c1.5,0,2.6-0.3,3.3-0.8s1.1-1.3,1.1-2.2c0-0.9-0.4-1.5-1.1-2.1s-1.7-0.8-3-0.8h-5.4L2029.8-378
			L2029.8-378z"/>
		<path class="st0" d="M2061.2-367.2h-14.7v-19.4h14.6v2.9h-10.5v5.3h8.4v2.8h-8.4v5.4h10.6V-367.2z"/>
		<path class="st0" d="M2087-367.2h-4.2v-16.9l-6.3,16.9h-2.1l-6.3-16.9v16.9h-3.3v-19.4h6.4l4.7,12.5l4.7-12.5h6.4L2087-367.2
			L2087-367.2z"/>
		<path class="st0" d="M2109.7-367.2h-4.4l-1.8-4.6h-8.7l-1.8,4.6h-3.5l7.5-19.4h5L2109.7-367.2z M2102.5-374.6l-3.3-8.6l-3.3,8.6
			H2102.5z"/>
		<path class="st0" d="M2129.1-367.2h-4.3l-3.5-8h-5.7v8h-4.1v-19.4h9.8c2.7,0,4.7,0.5,6,1.6s1.9,2.4,1.9,4.1c0,2.5-1.4,4.2-4.1,5.1
			L2129.1-367.2z M2115.5-378h5.1c1.5,0,2.6-0.3,3.3-0.8s1.1-1.3,1.1-2.2c0-0.9-0.4-1.5-1.1-2.1s-1.7-0.8-3-0.8h-5.4L2115.5-378
			L2115.5-378z"/>
		<path class="st0" d="M2150-367.2h-4.6l-4.8-9.9l-4.4,5v4.9h-4.1v-19.4h4.1v10.2c0.5-0.7,0.9-1.2,1.1-1.4l7.5-8.7h4.1l-5.4,6.4
			L2150-367.2z"/>
		<path class="st0" d="M2170.9-367.2h-4.4l-1.8-4.6h-8.7l-1.8,4.6h-3.5l7.5-19.4h5L2170.9-367.2z M2163.6-374.6l-3.3-8.6l-3.3,8.6
			H2163.6z"/>
		<path class="st0" d="M2173.6-367.2v-19.4h8.8c1.5,0,2.7,0.1,3.7,0.4c1,0.3,1.8,0.8,2.6,1.7c0.7,0.8,1.1,1.8,1.1,3
			c0,1.1-0.4,2-1.1,2.8s-1.7,1.3-3,1.5c1.6,0.2,2.8,0.8,3.6,1.7c0.8,0.9,1.2,1.9,1.2,3.1c0,1.5-0.6,2.8-1.7,3.8s-2.9,1.5-5.3,1.5
			H2173.6z M2177.4-378.5h5c1,0,1.8-0.3,2.4-0.8c0.6-0.5,0.9-1.2,0.9-2c0-0.9-0.3-1.5-1-2c-0.7-0.4-1.5-0.6-2.4-0.6h-4.9
			L2177.4-378.5L2177.4-378.5z M2177.4-370.1h5.3c1.1,0,2-0.3,2.6-0.8c0.6-0.5,1-1.2,1-2c0-0.8-0.3-1.5-1-2s-1.5-0.8-2.6-0.8h-5.3
			L2177.4-370.1L2177.4-370.1z"/>
		<path class="st0" d="M2207.1-367.2h-13.9v-19.4h4.3v16.2h9.6L2207.1-367.2L2207.1-367.2z"/>
		<path class="st0" d="M2224.8-367.2h-14.7v-19.4h14.6v2.9h-10.5v5.3h8.4v2.8h-8.4v5.4h10.6V-367.2z"/>
		<path class="st0" d="M2239.9-367.2h-4.1v-19.4h4.1V-367.2z"/>
		<path class="st0" d="M2245.8-367.2v-19.4h8.3c3.1,0,5.6,0.9,7.4,2.8c1.9,1.9,2.8,4.2,2.8,6.9s-1,5-2.9,6.9
			c-1.9,1.8-4.7,2.8-8.3,2.8H2245.8z M2250-370.1h3.4c1.8,0,3.4-0.6,4.6-1.8c1.3-1.2,1.9-2.9,1.9-5.2c0-1.9-0.6-3.5-1.7-4.8
			c-1.1-1.3-2.6-2-4.4-2h-3.9V-370.1z"/>
		<path class="st0" d="M2281.9-367.2h-14.7v-19.4h14.6v2.9h-10.5v5.3h8.4v2.8h-8.4v5.4h10.6V-367.2z"/>
		<path class="st0" d="M2303.1-367.2h-4.4l-1.8-4.6h-8.7l-1.8,4.6h-3.5l7.5-19.4h5L2303.1-367.2z M2295.9-374.6l-3.3-8.6l-3.3,8.6
			H2295.9z"/>
		<path class="st0" d="M2304.5-371.9l4-0.7c0.5,1.9,2.3,2.9,5.5,2.9c1.4,0,2.6-0.3,3.3-0.7s1.2-1.1,1.2-1.8c0-0.5-0.2-1-0.5-1.5
			s-1.1-0.8-2.3-1.1l-4.3-1c-1.5-0.3-2.6-0.7-3.3-1.1c-0.7-0.4-1.3-1-1.7-1.8s-0.6-1.6-0.6-2.5c0-1.7,0.8-3.1,2.3-4.2
			c1.5-1,3.4-1.6,5.8-1.6c1.9,0,3.7,0.4,5.2,1.1s2.5,1.8,2.9,3.1l-3.9,0.8c-0.6-1.5-2-2.2-4.2-2.2c-1.3,0-2.2,0.2-2.9,0.7
			s-1,1-1,1.7c0,1.1,1.1,1.9,3.1,2.3l3.9,0.8c2.3,0.5,3.9,1.2,4.7,2.2c0.8,1,1.2,2.1,1.2,3.2c0,1.9-0.8,3.4-2.5,4.5
			c-1.7,1.1-3.8,1.6-6.5,1.6c-2.2,0-4.2-0.4-5.9-1.2C2306.2-368.9,2305-370.2,2304.5-371.9z"/>
		<path class="st0" d="M2346.4-373.9l3.8,0.4c-0.2,1.9-1.1,3.5-2.6,4.8s-3.5,1.9-5.9,1.9c-2.1,0-3.7-0.4-5-1.3
			c-1.3-0.9-2.3-2.1-3-3.6s-1-3.2-1-5c0-3,0.8-5.4,2.4-7.2c1.6-1.9,3.9-2.8,6.8-2.8c2.2,0,4.1,0.6,5.6,1.8s2.4,2.9,2.8,5.1l-3.8,0.3
			c-0.7-2.9-2.2-4.4-4.6-4.4c-1.5,0-2.7,0.6-3.6,1.8c-0.9,1.2-1.3,3-1.3,5.3c0,2.3,0.4,4.1,1.4,5.3c0.9,1.2,2.1,1.8,3.6,1.8
			c1.2,0,2.2-0.4,3.1-1.2S2346.3-372.8,2346.4-373.9z"/>
		<path class="st0" d="M2364.7-366.9c-3,0-5.4-1-7-2.9c-1.7-1.9-2.5-4.3-2.5-7.1c0-2.8,0.9-5.2,2.7-7.1c1.8-1.9,4.1-2.8,7.1-2.8
			c2.9,0,5.3,1,7,2.8c1.7,1.9,2.6,4.3,2.6,7.1c0,3-0.9,5.4-2.7,7.2C2370-367.8,2367.7-366.9,2364.7-366.9z M2364.8-369.7
			c1.5,0,2.7-0.5,3.7-1.6s1.5-2.9,1.5-5.7c0-2.2-0.4-4-1.3-5.2s-2.1-1.9-3.9-1.9c-3.5,0-5.2,2.4-5.2,7.2c0,2.3,0.4,4.1,1.3,5.3
			C2361.9-370.3,2363.1-369.7,2364.8-369.7z"/>
		<path class="st0" d="M2401.5-367.2h-4.2v-16.9l-6.3,16.9h-2.1l-6.3-16.9v16.9h-3.3v-19.4h6.4l4.7,12.5l4.7-12.5h6.4L2401.5-367.2
			L2401.5-367.2z"/>
		<path class="st0" d="M2420.2-367.2h-14.7v-19.4h14.6v2.9h-10.5v5.3h8.4v2.8h-8.4v5.4h10.6V-367.2z"/>
		<path class="st0" d="M2440.1-367.2h-4.4v-16.4h-6v-3h16.4v3h-6V-367.2z"/>
		<path class="st0" d="M2458.5-366.9c-3,0-5.4-1-7-2.9c-1.7-1.9-2.5-4.3-2.5-7.1c0-2.8,0.9-5.2,2.7-7.1c1.8-1.9,4.1-2.8,7.1-2.8
			c2.9,0,5.3,1,7,2.8c1.7,1.9,2.6,4.3,2.6,7.1c0,3-0.9,5.4-2.7,7.2C2463.7-367.8,2461.4-366.9,2458.5-366.9z M2458.5-369.7
			c1.5,0,2.7-0.5,3.7-1.6s1.5-2.9,1.5-5.7c0-2.2-0.4-4-1.3-5.2s-2.1-1.9-3.9-1.9c-3.5,0-5.2,2.4-5.2,7.2c0,2.3,0.4,4.1,1.3,5.3
			C2455.6-370.3,2456.8-369.7,2458.5-369.7z"/>
		<path class="st0" d="M2494.4-367.2h-13.9v-19.4h4.3v16.2h9.6L2494.4-367.2L2494.4-367.2z"/>
		<path class="st0" d="M2501.5-367.2h-4.1v-19.4h4.1V-367.2z"/>
		<path class="st0" d="M2510.6-367.2h-4.2v-19.4h14.3v3h-10.1v5.3h8v2.9h-8L2510.6-367.2L2510.6-367.2z"/>
		<path class="st0" d="M2538.4-367.2h-14.7v-19.4h14.6v2.9h-10.5v5.3h8.4v2.8h-8.4v5.4h10.6V-367.2z"/>
	</g>
	<path class="st1" d="M2269.1-539.9c0,0,3.6,4-4.4,9.9c0,0-21.6,16.1-40.3,16.5c0,0-13.8,0.6-17.6-12.1c0,0-1.1-33.6,28.1-41.3
		c0,0,25.2-16.7,102.2-0.8c0,0,78.7,14.9,85.5,51.6c0,0,8.7,27.3-39.1,39.3l-25.5,8.7c0,0-27.5,9.9-59.9,14.4
		c0,0-41.9,4.5-106.5,1.9c0,0-38-2.4-99.2-25.6c0,0-37.2-19.1-25.2-46.6c0,0,28.9-28,44.7-26.8c0,0,57.4-3.8,64-2.3
		c0,0,61.9-2.6,80.2,16.7c0,0,11.1,15.8-65.2,12.2c0,0-81.9-4.9-27.5-31.3c0,0,17.2-11.8,114.8-10.8"/>
</g>
<g>
	<g>
		<g>
			<g>
				<path class="st2" d="M715.9,175.7c2.9,1.8,5.7,3.8,8.5,5.8c2.7,1.9,5.3,3.9,8.1,5.5c5.6,3.1,11.7,5.1,17.9,6.4
					c13.5,3,27.5,3.9,41.3,3.2c14.1-0.6,28-2.8,41.8-5.9c13.7-3.1,27.3-7.2,40.7-11.6c6.7-2.2,13.4-4.5,20.1-6.8
					c6.6-2.3,13.2-4.5,19.7-7.2c1.6-0.7,3.2-1.4,4.8-2.1c1.6-0.8,0.2-3.3-1.4-2.5c-6.3,2.9-12.8,5.2-19.3,7.4
					c-6.6,2.3-13.1,4.6-19.7,6.8c-13.2,4.4-26.5,8.6-40,11.9c-13.5,3.3-27.1,5.8-41,6.8c-13.7,1-27.6,0.6-41.2-1.8
					c-6.2-1.1-12.4-2.6-18.2-5.2c-5.9-2.6-11-6.7-16.3-10.4c-1.4-1-2.8-1.9-4.3-2.8C715.7,172.2,714.3,174.7,715.9,175.7
					L715.9,175.7z"/>
			</g>
		</g>
		<g>
			<g>
				<g>
					<path class="st2" d="M291.4,114.3c-0.9-13.4,4.3-26,9.7-37.9c5.8-12.8,11.5-25.7,16.9-38.7c1.5-3.7,3-7.4,4.5-11.1
						c1.2-2.9,2.5-6.6,0.5-9.4c-0.8-1.1-2.6-0.8-2.6,0.7c0,18.4-0.1,36.8,0.9,55.1c0.9,16.9,2.1,34.2,7.4,50.3
						c2.4,7.2,5.5,14.4,10.2,20.3c4.2,5.2,10.1,9.5,16.8,9.6c7.1,0.1,13.3-4.6,17.1-10.6c4.4-6.9,6.2-15.4,7.4-23.4
						c1.4-8.7,1.9-17.6,2.3-26.4c0.4-8.9,1.2-17.8,1.2-26.7c0-7.8-1-15.9-5.5-22.3c-3.6-5.3-9.6-9.6-16-8.5
						c-2.9,0.5-5.6,2.3-6.7,5.3c-0.7,2-0.5,4.2-0.8,6.2c-0.3,2.2-0.7,4.3-1.2,6.4c-1,4.2-2.1,8.4-2.9,12.7
						c-0.8,4.3-1.4,8.6-1.8,12.9c-0.8,8.7-0.7,17.5,0.2,26.1c0.5,4.3,1.1,8.6,2,12.9c0.7,3.4,1.5,6.9,3.7,9.6
						c2.1,2.6,5.4,3.2,8.1,1.2c1.5-1.2,2.9-2.7,4.2-4.1c1.4-1.5,2.7-3,3.9-4.6c5.1-6.4,9.4-13.4,13.8-20.4
						c8.5-13.7,17.1-27.7,22.4-43.2c1.3-3.7,2.3-7.5,3.1-11.4c0.1-0.7-0.1-1.3-0.6-1.6c-3.4-2.3-6.8,1.6-8.9,4
						c-2.3,2.7-4.4,5.7-6.2,8.9c-3.5,6.4-5.8,13.5-6.8,20.8c-1,7.4-0.8,15,0.9,22.3c0.9,4.1,2.3,8.1,4.7,11.5c2.2,3,5,5.5,8.1,7.4
						c6.9,4.2,14.9,6.4,22.8,7.5c8.5,1.2,17.2,0.8,25.5-1.2c3.9-1,7.1-2.7,9.6-6c2.4-3.1,4.2-6.7,6.5-9.8c2.4-3.2,5-6.2,7.1-9.5
						c2.3-3.6,3.9-7.5,4.8-11.7c0.9-4.2,1.1-8.6,1.1-12.9c0-4.2-0.1-8.5-1-12.7c-1.6-7.4-6-14.6-13.3-16.9c-1.6-0.5-3.3-0.7-5-0.6
						c0.1,1,0.2,1.9,0.4,2.9c12.2-2,24.6-1.1,36.4,2.6c1.7,0.5,2.4-2.3,0.7-2.8c-12.3-3.9-25.2-4.7-37.9-2.6c-1.5,0.3-1.2,3,0.4,2.9
						c6.6-0.5,12.1,4.9,14.4,11c1.4,3.7,1.9,7.7,2.1,11.7c0.2,4,0.1,8-0.3,11.9c-0.4,3.9-1.2,7.9-2.8,11.5c-1.6,3.4-3.8,6.4-6.1,9.4
						c-2.3,2.9-4.6,5.8-6.5,9c-1.8,2.9-3.6,6.2-6.5,8.1c-3.2,2-7.4,2.5-11,3.1c-3.9,0.5-7.8,0.7-11.8,0.6
						c-7.7-0.3-15.4-1.9-22.6-4.9c-6.3-2.6-12.2-6.7-15.1-13.4c-2.8-6.4-3.5-14-3.4-20.9c0.4-13.6,5.4-27.2,14.6-36.9
						c0.9-0.9,2.4-2.4,3.7-1.5c-0.2-0.5-0.4-1.1-0.6-1.6c-3.2,15.3-10.4,29.2-18.2,42.4c-3.9,6.6-8,13.2-12.2,19.6
						c-4.2,6.5-8.6,12.8-14,18.3c-1.1,1.1-2.4,2.8-4.1,2.6c-1.1-0.1-2-1-2.7-1.9c-1.9-2.7-2.4-6.2-3.1-9.4
						c-1.6-8.2-2.4-16.5-2.4-24.8c0-8.3,0.8-16.5,2.3-24.6c0.8-4.1,1.9-8.1,2.8-12.1c0.5-2,0.9-4,1.2-6c0.3-1.9,0.2-4,0.6-5.9
						c0.6-2.9,3.3-4.2,6-4.2c2.8-0.1,5.6,1.2,7.8,2.9c5.3,4,7.9,10.8,8.7,17.3c0.5,4.1,0.5,8.3,0.3,12.4c-0.2,4.2-0.4,8.5-0.6,12.7
						c-0.4,8.4-0.7,16.8-1.5,25.2c-0.7,8.1-1.9,16.3-4.4,24.1c-2.2,6.7-6,13.3-12.4,16.4c-5.8,2.7-12.1,0.9-16.9-3.2
						c-5.2-4.4-8.6-10.5-11.2-16.8c-6.1-14.5-8-30.5-9.1-46.2c-1.3-17.4-1.5-34.8-1.5-52.3c0-4.2,0-8.5,0-12.7
						c-0.9,0.2-1.7,0.5-2.6,0.7c1.7,2.3-0.1,5.7-1.1,8c-1.3,3.3-2.6,6.6-4,9.8c-2.7,6.5-5.4,13-8.2,19.4c-2.8,6.3-5.6,12.6-8.5,18.9
						c-2.7,5.9-5.3,11.9-7.2,18.2c-2.1,6.9-3.4,14.1-2.9,21.4C288.7,116.2,291.5,116.2,291.4,114.3L291.4,114.3z"/>
				</g>
			</g>
			<g>
				<g>
					<path class="st2" d="M496.4,49.7c16.8,4.5,34.2,6.4,51.3,8.7c8.6,1.2,17.2,2.5,25.8,4.4c8.7,1.9,17.3,4.4,25.8,7.1
						c4.2,1.3,8.4,2.8,12.6,4.2c3.9,1.3,7.9,2.5,11.5,4.6c3.4,1.9,6.2,4.7,9,7.5c2.8,2.8,5.7,5.5,8.6,8.2c2.5,2.3,4.8,4.7,7.3,7
						c2.8,2.6,5.8,5,8.6,7.7c6.2,5.9,11.9,12.4,17.5,18.9c12.2,14,24.4,28.1,36.7,42.1c1.5,1.8,3.1,3.5,4.6,5.3
						c1.2,1.4,3.2-0.7,2-2.1c-12.3-14.2-24.6-28.3-37-42.5c-5.8-6.7-11.5-13.5-17.7-19.8c-5.3-5.4-11.1-10.2-16.5-15.5
						c-2.7-2.7-5.6-5.2-8.3-7.9c-2.9-2.8-5.7-5.8-8.8-8.3c-6.5-5.5-14.8-7.5-22.6-10.1c-8.4-2.8-16.9-5.5-25.5-7.6
						c-8.5-2.2-17.2-3.7-25.9-5c-17.3-2.6-34.8-4.2-51.9-8.1c-2.1-0.5-4.2-1-6.3-1.6C495.4,46.5,494.7,49.3,496.4,49.7L496.4,49.7z"
						/>
				</g>
			</g>
			<g>
				<g>
					<path class="st2" d="M918.5,163.1c14.4-7,28.5-14.5,42.5-22.3c14-7.8,28-15.9,41.4-24.8c6.8-4.6,13.4-9.5,20.1-14.4
						c6.7-4.9,13.4-9.8,20.1-14.7c6.7-4.9,13.4-9.8,20.1-14.7c3.4-2.5,6.8-4.9,10.1-7.4c1.3-1,2.8-2.4,4.5-2.4c1.5,0,2.8,0.9,3.7,2
						c1,1.2,1.6,2.7,2.2,4.1c0.6,1.3,1.1,2.6,1.6,3.9c1,2.6,2,5.3,3.1,7.9c2.3,5.6,5.5,10.6,10,14.6c1.4,1.2,2.8,2.4,4.2,3.4
						c1.5,1.1,2.9-1.5,1.4-2.5c-5.2-3.7-9.3-8.5-12.1-14.5c-2.4-5.1-4.1-10.6-6.5-15.8c-1.4-3.1-3.7-5.8-7.2-6.1
						c-1.8-0.1-3.4,0.7-4.8,1.7c-1.7,1.2-3.3,2.4-5,3.6c-6.8,4.9-13.5,9.9-20.2,14.8c-13.5,9.9-27,19.9-40.6,29.6
						c-13.3,9.4-27.5,17.7-41.6,25.7c-14.1,8-28.4,15.7-42.8,22.9c-1.8,0.9-3.6,1.8-5.5,2.7C915.5,161.4,916.9,163.9,918.5,163.1
						L918.5,163.1z"/>
				</g>
			</g>
		</g>
	</g>
	<g>
		<path class="st0" d="M86.4,210v-78.3h16.1V210H86.4z"/>
		<path class="st0" d="M118,210v-78.3h15.7l32.7,52.3v-52.3h15V210h-16.2L133,158.9V210H118z"/>
		<path class="st0" d="M247.5,210v-65.1h-23.7v-13.3h63.5v13.3h-23.6V210H247.5z"/>
		<path class="st0" d="M297.7,210v-78.3h16.1v30.8h31.6v-30.8h16.1V210h-16.1v-34.2h-31.6V210H297.7z"/>
		<path class="st0" d="M378.2,210v-78.3h65v13.3h-47.3v17.4h44v13.2h-44v21.3h49V210L378.2,210L378.2,210z"/>
		<path class="st0" d="M456.2,185.2l15.7-1.5c0.9,5.2,2.9,9,5.8,11.4s6.8,3.6,11.7,3.6c5.2,0,9.1-1.1,11.7-3.2c2.6-2.2,4-4.7,4-7.6
			c0-1.8-0.5-3.4-1.7-4.7c-1.1-1.3-3-2.4-5.8-3.4c-1.9-0.6-6.2-1.8-12.9-3.4c-8.6-2.1-14.7-4.7-18.2-7.8c-4.9-4.3-7.4-9.6-7.4-15.8
			c0-4,1.1-7.7,3.5-11.2c2.3-3.5,5.6-6.1,10-7.9c4.3-1.8,9.6-2.7,15.7-2.7c10,0,17.6,2.2,22.6,6.5c5.1,4.3,7.7,10.1,8,17.3
			l-16.1,0.7c-0.7-4-2.2-6.9-4.4-8.7s-5.7-2.6-10.2-2.6c-4.7,0-8.4,0.9-11,2.8c-1.7,1.2-2.6,2.8-2.6,4.9c0,1.8,0.8,3.4,2.4,4.8
			c2,1.7,7,3.4,14.8,5.2s13.6,3.7,17.4,5.6c3.8,1.9,6.7,4.6,8.8,8s3.2,7.5,3.2,12.5c0,4.5-1.3,8.7-3.8,12.6
			c-2.5,3.9-6.1,6.8-10.8,8.7c-4.6,1.9-10.4,2.9-17.4,2.9c-10.1,0-17.9-2.3-23.3-6.9C460.5,200.6,457.3,193.9,456.2,185.2z"/>
		<path class="st0" d="M527.1,210v-78.3h57.2v13.3h-41.6v17.4h38.7v13.2h-38.7v21.3h43.1V210L527.1,210L527.1,210z"/>
		<path class="st0" d="M632.4,131.7h16.1v42.4c0,6.7,0.2,11.1,0.6,13.1c0.7,3.2,2.3,5.8,4.9,7.7c2.6,1.9,6.2,2.9,10.7,2.9
			c4.6,0,8-0.9,10.3-2.8c2.3-1.8,3.7-4.1,4.2-6.8c0.5-2.7,0.7-7.1,0.7-13.3v-43.3h16.1v41.1c0,9.4-0.4,16-1.3,19.9
			c-0.9,3.9-2.5,7.2-4.8,9.8c-2.3,2.7-5.5,4.8-9.4,6.4c-3.9,1.6-9,2.4-15.4,2.4c-7.6,0-13.4-0.9-17.4-2.6c-3.9-1.7-7.1-4-9.3-6.7
			s-3.8-5.7-4.5-8.7c-1-4.5-1.6-11.1-1.6-19.9L632.4,131.7L632.4,131.7z"/>
		<path class="st0" d="M715.3,210v-78.3H731l32.7,52.3v-52.3h15V210h-16.2l-32.2-51.1V210H715.3z"/>
		<path class="st0" d="M849.9,181.2l15.6,4.9c-2.4,8.5-6.4,14.9-12,19c-5.6,4.2-12.7,6.2-21.2,6.2c-10.6,0-19.3-3.5-26.2-10.7
			c-6.8-7.1-10.2-16.8-10.2-29.1c0-13,3.4-23.2,10.3-30.4s15.9-10.8,27.1-10.8c9.8,0,17.7,2.8,23.8,8.5c3.6,3.3,6.4,8.2,8.2,14.4
			l-16,3.7c-1-4.1-2.9-7.3-5.9-9.6c-3-2.3-6.6-3.5-10.9-3.5c-5.9,0-10.7,2.1-14.4,6.3c-3.7,4.2-5.5,10.9-5.5,20.3
			c0,9.9,1.8,17,5.5,21.2c3.6,4.2,8.3,6.3,14.2,6.3c4.3,0,8-1.3,11.1-4C846.3,191.1,848.5,186.9,849.9,181.2z"/>
		<path class="st0" d="M881.4,210v-78.3h16.1v30.8h31.6v-30.8h16.1V210h-16.1v-34.2h-31.6V210H881.4z"/>
		<path class="st0" d="M1036,210h-17.5l-7-17.8h-31.9l-6.6,17.8h-17.1l31.1-78.3h17.1L1036,210z M1006.3,179l-11-29.1L984.5,179
			H1006.3z"/>
		<path class="st0" d="M1042.6,210v-78.3h34c8.5,0,14.7,0.7,18.6,2.1s7,3.9,9.3,7.5c2.3,3.6,3.5,7.7,3.5,12.3
			c0,5.9-1.8,10.7-5.3,14.6c-3.5,3.8-8.8,6.2-15.8,7.2c3.5,2,6.4,4.2,8.6,6.6c2.3,2.4,5.3,6.6,9.2,12.7l9.8,15.3h-19.3l-11.7-17
			c-4.1-6.1-7-9.9-8.5-11.5c-1.5-1.6-3.1-2.7-4.8-3.3s-4.4-0.9-8.1-0.9h-3.3V210L1042.6,210L1042.6,210z M1058.7,164.8h11.9
			c7.7,0,12.6-0.3,14.5-1c1.9-0.6,3.4-1.7,4.5-3.3c1.1-1.6,1.6-3.5,1.6-5.9c0-2.6-0.7-4.8-2.2-6.4c-1.4-1.6-3.5-2.6-6.1-3.1
			c-1.3-0.2-5.2-0.3-11.8-0.3h-12.6L1058.7,164.8L1058.7,164.8z"/>
		<path class="st0" d="M1139.1,210v-65.1h-23.7v-13.3h63.5v13.3h-23.7V210H1139.1z"/>
		<path class="st0" d="M1190.3,210v-78.3h59.2v13.3h-43.1v17.4h40.1v13.2h-40.1v21.3h44.6V210L1190.3,210L1190.3,210z"/>
		<path class="st0" d="M1261.7,131.7h29.5c6.7,0,11.7,0.5,15.2,1.5c4.7,1.3,8.7,3.8,12,7.2c3.3,3.5,5.9,7.7,7.6,12.7
			c1.7,5,2.6,11.2,2.6,18.5c0,6.5-0.8,12-2.4,16.7c-2,5.7-4.8,10.3-8.6,13.8c-2.8,2.7-6.6,4.8-11.3,6.3c-3.6,1.1-8.3,1.7-14.3,1.7
			h-30.3V131.7z M1277.8,144.9v51.9h12c4.5,0,7.8-0.3,9.8-0.8c2.6-0.6,4.8-1.7,6.5-3.3s3.1-4,4.2-7.6s1.6-8.3,1.6-14.3
			c0-6-0.5-10.7-1.6-13.9s-2.6-5.8-4.6-7.6s-4.4-3-7.5-3.7c-2.3-0.5-6.7-0.8-13.2-0.8L1277.8,144.9L1277.8,144.9z"/>
	</g>
	<g>
		<g>
			<path class="st0" d="M55.1,346.1l-19.1-78.3h16.5l12,53.8l14.6-53.8h19.2l14,54.7l12.3-54.7h16.2l-19.4,78.3h-17.1l-15.9-58.5
				l-15.9,58.5H55.1z"/>
			<path class="st0" d="M217,346.1h-17.6l-7-17.8h-31.9l-6.6,17.8h-17.1l31.1-78.3H185L217,346.1z M187.3,315.1l-11-29.1l-10.8,29.1
				H187.3z"/>
			<path class="st0" d="M237.3,346.1V281h-23.7v-13.3H277V281h-23.7v65.1H237.3z"/>
			<path class="st0" d="M288.5,346.1v-78.3h59.2V281h-43.1v17.4h40.1v13.2h-40.1v21.3h44.6v13.2L288.5,346.1L288.5,346.1z"/>
			<path class="st0" d="M358.9,346.1v-78.3h33.9c8.5,0,14.7,0.7,18.6,2.1s7,3.9,9.3,7.5c2.3,3.6,3.5,7.7,3.5,12.3
				c0,5.9-1.8,10.7-5.3,14.6c-3.5,3.8-8.8,6.2-15.8,7.2c3.5,2,6.4,4.2,8.6,6.6c2.3,2.4,5.3,6.6,9.2,12.7l9.8,15.3h-19.3l-11.7-17
				c-4.1-6.1-7-9.9-8.5-11.5c-1.5-1.6-3.1-2.7-4.8-3.3s-4.4-0.9-8.1-0.9h-3.3v32.7L358.9,346.1L358.9,346.1z M375.1,300.9H387
				c7.7,0,12.6-0.3,14.5-1c1.9-0.6,3.4-1.7,4.5-3.3s1.6-3.5,1.6-5.9c0-2.6-0.7-4.8-2.2-6.4c-1.4-1.6-3.5-2.6-6.1-3.1
				c-1.3-0.2-5.2-0.3-11.8-0.3h-12.6L375.1,300.9L375.1,300.9z"/>
			<path class="st0" d="M434.4,320.6l15.7-1.5c0.9,5.2,2.9,9,5.8,11.4s6.8,3.6,11.7,3.6c5.2,0,9.1-1.1,11.7-3.2
				c2.6-2.2,3.9-4.7,3.9-7.6c0-1.8-0.6-3.4-1.7-4.7s-3-2.4-5.8-3.4c-1.9-0.6-6.2-1.8-12.9-3.4c-8.7-2.1-14.7-4.7-18.2-7.8
				c-4.9-4.3-7.4-9.6-7.4-15.8c0-4,1.2-7.7,3.5-11.2c2.3-3.5,5.6-6.1,10-7.9c4.3-1.8,9.6-2.7,15.7-2.7c10,0,17.6,2.2,22.6,6.5
				c5.1,4.3,7.7,10.1,8,17.3l-16.1,0.7c-0.7-4-2.2-6.9-4.4-8.7c-2.3-1.8-5.7-2.6-10.2-2.6c-4.7,0-8.4,0.9-11,2.8
				c-1.7,1.2-2.6,2.8-2.6,4.9c0,1.8,0.8,3.4,2.4,4.8c2,1.7,7,3.4,14.8,5.2s13.7,3.7,17.4,5.6s6.7,4.6,8.8,8s3.2,7.5,3.2,12.5
				c0,4.5-1.3,8.7-3.8,12.6s-6.1,6.8-10.8,8.7c-4.7,1.9-10.4,2.9-17.4,2.9c-10.1,0-17.9-2.3-23.3-6.9
				C438.7,336,435.4,329.4,434.4,320.6z"/>
		</g>
		<g>
			<g>
				<path class="st0" d="M531.1,300.6c0-8,1.2-14.7,3.6-20.1c1.8-4,4.3-7.6,7.4-10.7s6.6-5.5,10.3-7c5-2.1,10.7-3.1,17.2-3.1
					c11.8,0,21.2,3.6,28.3,10.7c7.1,7.2,10.6,17.1,10.6,29.9c0,12.6-3.5,22.5-10.5,29.7c-7,7.1-16.4,10.7-28.1,10.7
					c-11.9,0-21.3-3.5-28.3-10.7C534.6,322.9,531.1,313.1,531.1,300.6z M547.7,300.1c0,8.9,2.1,15.6,6.3,20.2
					c4.2,4.6,9.5,6.9,15.9,6.9s11.7-2.3,15.8-6.8c4.1-4.5,6.2-11.4,6.2-20.4c0-9-2-15.7-6-20.1s-9.4-6.6-16-6.6
					c-6.6,0-12,2.2-16.1,6.7C549.8,284.3,547.7,291.1,547.7,300.1z"/>
				<path class="st0" d="M622.3,338v-78.3h54.8v13.3h-38.6v18.5h33.3v13.3h-33.3V338L622.3,338L622.3,338z"/>
				<path class="st0" d="M762.5,310.5l15.6,4.9c-2.4,8.5-6.4,14.9-12,19s-12.7,6.2-21.2,6.2c-10.6,0-19.3-3.5-26.2-10.7
					c-6.8-7.1-10.2-16.8-10.2-29.1c0-13,3.4-23.2,10.3-30.4s15.9-10.8,27.1-10.8c9.8,0,17.7,2.8,23.8,8.5c3.6,3.3,6.4,8.2,8.2,14.4
					l-16,3.7c-1-4.1-2.9-7.3-5.9-9.6c-3-2.3-6.6-3.5-10.9-3.5c-5.9,0-10.7,2.1-14.4,6.3c-3.7,4.2-5.5,10.9-5.5,20.3
					c0,9.9,1.8,17,5.5,21.2c3.6,4.2,8.3,6.3,14.2,6.3c4.3,0,8-1.3,11.1-4C758.9,320.4,761.1,316.2,762.5,310.5z"/>
				<path class="st0" d="M798,338v-78.3h34c8.5,0,14.7,0.7,18.6,2.1s7,3.9,9.3,7.5c2.3,3.6,3.5,7.7,3.5,12.3
					c0,5.9-1.8,10.7-5.3,14.6c-3.5,3.8-8.8,6.2-15.8,7.2c3.5,2,6.4,4.2,8.6,6.6c2.3,2.4,5.3,6.6,9.2,12.7l9.8,15.3h-19.3l-11.7-17
					c-4.1-6.1-7-9.9-8.5-11.5c-1.5-1.6-3.1-2.7-4.8-3.3c-1.7-0.6-4.4-0.9-8.1-0.9h-3.3V338H798z M814.1,292.8h11.9
					c7.7,0,12.6-0.3,14.5-1c1.9-0.6,3.4-1.7,4.5-3.3s1.6-3.5,1.6-5.9c0-2.6-0.7-4.8-2.2-6.4c-1.4-1.6-3.5-2.6-6.1-3.1
					c-1.3-0.2-5.2-0.3-11.8-0.3h-12.6L814.1,292.8L814.1,292.8z"/>
				<path class="st0" d="M874.3,338v-78.3h47.7v13.3h-34.7v17.4h32.3v13.2h-32.3v21.3h35.9V338L874.3,338L874.3,338z"/>
				<path class="st0" d="M1013,338h-17.6l-7-17.8h-31.9L950,338h-17.1l31.1-78.3H981L1013,338z M983.3,307l-11-29.1L961.5,307
					L983.3,307L983.3,307z"/>
				<path class="st0" d="M1033.3,338v-65.1h-23.7v-13.3h63.5v13.3h-23.7V338L1033.3,338L1033.3,338z"/>
				<path class="st0" d="M1088,338v-78.3h16.1V338L1088,338L1088,338z"/>
				<path class="st0" d="M1142.9,338l-28.6-78.3h17.5l20.2,58l19.6-58h17.1l-28.6,78.3L1142.9,338L1142.9,338z"/>
				<path class="st0" d="M1199.4,338v-78.3h16.1V338L1199.4,338L1199.4,338z"/>
				<path class="st0" d="M1249.9,338v-65.1h-23.7v-13.3h63.5v13.3H1266V338L1249.9,338L1249.9,338z"/>
				<path class="st0" d="M1326.1,338v-33l-29.3-45.4h18.9l18.8,31l18.4-31h18.6l-29.4,45.5v32.9L1326.1,338L1326.1,338z"/>
			</g>
		</g>
	</g>
	<g>
		<g>
			<path class="st0" d="M128.5,466.5l-19.1-78.3h16.5l12,53.8l14.6-53.8h19.2l14,54.7l12.3-54.7h16.2l-19.4,78.3h-17.1L161.8,408
				l-15.9,58.5H128.5z"/>
			<path class="st0" d="M227.7,466.5v-78.3h47.8v13.3h-34.8v17.4h32.3V432h-32.3v21.3h36v13.2L227.7,466.5L227.7,466.5z"/>
			<path class="st0" d="M322.7,466.5v-78.3h45.5v13.3h-32.1V420h27.7v13.3h-27.7v33.3H322.7z"/>
			<path class="st0" d="M385.7,466.5v-78.3h16.1v78.3H385.7z"/>
			<path class="st0" d="M421.9,466.5v-78.3h15.7l32.7,52.3v-52.3h15v78.3h-16.2l-32.2-51.1v51.1H421.9z"/>
			<path class="st0" d="M506.2,388.2h29.5c6.7,0,11.7,0.5,15.2,1.5c4.7,1.4,8.7,3.8,12,7.2c3.3,3.5,5.9,7.7,7.6,12.7
				c1.7,5,2.6,11.2,2.6,18.5c0,6.5-0.8,12-2.5,16.7c-2,5.7-4.8,10.3-8.6,13.8c-2.8,2.7-6.6,4.8-11.3,6.3c-3.6,1.1-8.3,1.7-14.3,1.7
				h-30.3L506.2,388.2L506.2,388.2z M522.3,401.5v51.9h12c4.5,0,7.8-0.3,9.8-0.8c2.6-0.6,4.8-1.7,6.5-3.3c1.7-1.5,3.1-4,4.2-7.6
				c1.1-3.5,1.6-8.3,1.6-14.3s-0.5-10.7-1.6-13.9s-2.6-5.8-4.6-7.6s-4.5-3-7.5-3.7c-2.3-0.5-6.7-0.8-13.2-0.8L522.3,401.5
				L522.3,401.5z"/>
			<path class="st0" d="M609.9,429.2c0-8,1.2-14.7,3.7-20.1c1.8-4,4.3-7.6,7.4-10.7c3.1-3.2,6.6-5.5,10.3-7c5-2.1,10.7-3.1,17.2-3.1
				c11.8,0,21.2,3.6,28.3,10.7s10.6,17.1,10.6,29.9c0,12.6-3.5,22.5-10.5,29.7c-7,7.1-16.4,10.7-28.1,10.7
				c-11.9,0-21.3-3.5-28.3-10.7C613.4,451.5,609.9,441.7,609.9,429.2z M626.6,428.7c0,8.9,2.1,15.6,6.3,20.2
				c4.2,4.6,9.5,6.9,15.9,6.9s11.7-2.3,15.8-6.8s6.2-11.4,6.2-20.4c0-9-2-15.7-6-20.1c-4-4.4-9.3-6.6-16-6.6s-12,2.2-16.1,6.7
				C628.6,412.9,626.6,419.7,626.6,428.7z"/>
			<path class="st0" d="M700.7,388.2h16.1v42.4c0,6.7,0.2,11.1,0.6,13.1c0.7,3.2,2.3,5.8,4.9,7.7s6.2,2.9,10.7,2.9
				c4.6,0,8-0.9,10.3-2.8c2.3-1.8,3.7-4.1,4.2-6.8c0.5-2.7,0.7-7.1,0.7-13.3v-43.3h16.1v41.1c0,9.4-0.4,16-1.3,19.9
				s-2.5,7.2-4.8,9.8c-2.3,2.7-5.5,4.8-9.4,6.4c-3.9,1.6-9,2.4-15.4,2.4c-7.6,0-13.4-0.9-17.4-2.6c-3.9-1.7-7.1-4-9.3-6.7
				s-3.8-5.6-4.5-8.7c-1-4.5-1.6-11.1-1.6-19.9L700.7,388.2L700.7,388.2z"/>
			<path class="st0" d="M781.4,466.5v-78.3h34c8.5,0,14.7,0.7,18.6,2.1c3.9,1.4,7,3.9,9.3,7.5s3.5,7.7,3.5,12.3
				c0,5.9-1.8,10.7-5.3,14.6c-3.5,3.8-8.8,6.2-15.8,7.2c3.5,2,6.4,4.2,8.6,6.6c2.3,2.4,5.3,6.6,9.2,12.7l9.8,15.3H834l-11.7-17
				c-4.1-6.1-7-9.9-8.5-11.5c-1.5-1.6-3.1-2.7-4.8-3.3c-1.7-0.6-4.4-0.9-8.1-0.9h-3.3v32.7L781.4,466.5L781.4,466.5z M797.5,421.3
				h11.9c7.7,0,12.6-0.3,14.5-1c1.9-0.6,3.4-1.7,4.5-3.3s1.6-3.5,1.6-5.9c0-2.6-0.7-4.8-2.2-6.4c-1.4-1.6-3.5-2.6-6.1-3.1
				c-1.3-0.2-5.2-0.3-11.8-0.3h-12.6L797.5,421.3L797.5,421.3z"/>
			<path class="st0" d="M906.4,466.5v-65.1h-23.7v-13.3h63.5v13.3h-23.7v65.1H906.4z"/>
			<path class="st0" d="M959.1,466.5v-78.3h16.1V419h31.6v-30.8h16.1v78.3h-16.1v-34.2h-31.6v34.2H959.1z"/>
			<path class="st0" d="M1041.8,466.5v-78.3h33.9c8.5,0,14.7,0.7,18.6,2.1c3.9,1.4,7,3.9,9.3,7.5c2.3,3.6,3.5,7.7,3.5,12.3
				c0,5.9-1.8,10.7-5.3,14.6c-3.5,3.8-8.8,6.2-15.8,7.2c3.5,2,6.4,4.2,8.6,6.6c2.3,2.4,5.3,6.6,9.2,12.7l9.8,15.3h-19.3l-11.7-17
				c-4.1-6.1-7-9.9-8.5-11.5c-1.5-1.6-3.1-2.7-4.8-3.3s-4.4-0.9-8.1-0.9h-3.3v32.7L1041.8,466.5L1041.8,466.5z M1057.9,421.3h11.9
				c7.7,0,12.6-0.3,14.5-1c1.9-0.6,3.4-1.7,4.5-3.3s1.6-3.5,1.6-5.9c0-2.6-0.7-4.8-2.2-6.4c-1.4-1.6-3.5-2.6-6.1-3.1
				c-1.3-0.2-5.2-0.3-11.8-0.3h-12.6L1057.9,421.3L1057.9,421.3z"/>
			<path class="st0" d="M1120.9,466.5v-78.3h16.1v78.3H1120.9z"/>
			<path class="st0" d="M1153.8,465.9v-77.7h16.1v64.5h40.1v13.2L1153.8,465.9L1153.8,465.9z"/>
			<path class="st0" d="M1221.9,465.9v-77.7h16.1v64.5h40.1v13.2L1221.9,465.9L1221.9,465.9z"/>
		</g>
	</g>
</g>
</svg>
